SplineFontDB: 3.0
FontName: StickNoBills-Light
FullName: Stick No Bills
FamilyName: Stick No Bills
OS2FamilyName: "Stick No Bills Regular"
OS2StyleName: "regular"
Weight: Light
Copyright: Remove All VKern Pairs
UComments: "2015-2-15: Created with FontForge (http://fontforge.org) The  Free Font Editor"
Version: 1.0
ItalicAngle: 0
UnderlinePosition: -102
UnderlineWidth: 51
Ascent: 819
Descent: 205
InvalidEm: 0
UFOAscent: 819
UFODescent: -205
LayerCount: 2
Layer: 0 0 "Back" 1
Layer: 1 0 "Fore" 0
FSType: 0
OS2Version: 0
OS2_WeightWidthSlopeOnly: 0
OS2_UseTypoMetrics: 0
CreationTime: 1445925811
ModificationTime: 1445925811
PfmFamily: 16
TTFWeight: 400
TTFWidth: 5
LineGap: 94
VLineGap: 0
OS2TypoAscent: 819
OS2TypoAOffset: 0
OS2TypoDescent: -205
OS2TypoDOffset: 0
OS2TypoLinegap: 94
OS2WinAscent: 918
OS2WinAOffset: 0
OS2WinDescent: 205
OS2WinDOffset: 0
HheadAscent: 918
HheadAOffset: 0
HheadDescent: -205
HheadDOffset: 0
OS2CapHeight: 0
OS2XHeight: 0
OS2Vendor: 'PfEd'
OS2UnicodeRanges: 00000002.00000000.00000000.00000000
Lookup: 258 0 0 "kernHorizontalKerninglookup0" { "kernHorizontalKerninglookup0 subtable"  } ['kern' ('latn' <'dflt' > 'hani' <'dflt' > 'DFLT' <'dflt' > ) ]
DEI: 91125
KernClass2: 6 7 "kernHorizontalKerninglookup0 subtable"
 1 A
 7 F P T Y
 1 L
 3 V W
 9 f r v w y
 1 A
 7 T V W Y
 17 a c d e g o q s u
 15 colon semicolon
 12 comma period
 5 t v w
 0 {} 0 {} 0 {} 0 {} 0 {} 0 {} 0 {} 0 {} 0 {} -70 {} -23 {} 45 {} 61 {} -68 {} 0 {} -100 {} 16 {} -30 {} -63 {} -80 {} -23 {} 0 {} 0 {} -82 {} 84 {} 62 {} 0 {} -77 {} 0 {} -130 {} 0 {} -55 {} -75 {} -109 {} 0 {} 0 {} 0 {} 0 {} 0 {} 0 {} -41 {} 0 {}

StartChar: A
Encoding: 65 65 0
GlifName: A_
Width: 433
VWidth: 0
GlyphClass: 2
Flags: W
LayerCount: 2
Back
Fore
SplineSet
32 0 m 257
 169 599 l 257
 186 599 l 257
 196 554 l 257
 72 0 l 257
 32 0 l 257
146 135 m 257
 154 173 l 257
 324 173 l 257
 209 699 l 257
 249 699 l 257
 401 0 l 257
 361 0 l 257
 333 135 l 257
 146 135 l 257
EndSplineSet
EndChar

StartChar: AE
Encoding: 256 198 1
GlifName: A_E_
Width: 727
VWidth: 0
GlyphClass: 2
Flags: W
LayerCount: 2
Back
Fore
SplineSet
81 0 m 257
 261 700 l 257
 701 700 l 257
 701 661 l 257
 427 661 l 257
 427 367 l 257
 607 367 l 257
 607 329 l 257
 427 329 l 257
 427 38 l 257
 701 38 l 257
 701 0 l 257
 387 0 l 257
 387 188 l 257
 218 188 l 257
 228 228 l 257
 387 228 l 257
 387 661 l 257
 293 661 l 257
 125 0 l 257
 81 0 l 257
EndSplineSet
EndChar

StartChar: Aring
Encoding: 260 197 9
GlifName: A_ring
Width: 516
VWidth: 0
GlyphClass: 2
Flags: W
LayerCount: 2
Back
Fore
SplineSet
74 0 m 257
 211 599 l 257
 228 599 l 257
 238 554 l 257
 114 0 l 257
 74 0 l 257
188 135 m 257
 196 173 l 257
 366 173 l 257
 252 694 l 257
 220 701 196 731 196 765 c 256
 196 805 228 837 268 837 c 256
 308 837 341 805 341 765 c 256
 341 733 321 706 292 696 c 257
 443 0 l 257
 403 0 l 257
 375 135 l 257
 188 135 l 257
230 765 m 256
 230 744 247 727 268 727 c 256
 290 727 307 744 307 765 c 256
 307 787 290 804 268 804 c 256
 247 804 230 787 230 765 c 256
EndSplineSet
EndChar

StartChar: B
Encoding: 66 66 11
GlifName: B_
Width: 496
VWidth: 0
GlyphClass: 2
Flags: W
LayerCount: 2
Back
Fore
SplineSet
42 0 m 257
 42 700 l 257
 82 700 l 257
 82 0 l 257
 42 0 l 257
127 -1 m 257
 127 37 l 257
 151 37 223 37 223 37 c 258
 386 37 434 132 434 205 c 256
 434 277 397 333 288 333 c 258
 288 333 147 333 127 333 c 257
 127 371 l 257
 142 371 288 371 288 371 c 258
 399 371 430 426 430 497 c 256
 430 567 381 662 256 662 c 258
 256 662 150 662 127 662 c 257
 127 700 l 257
 135 700 258 700 258 700 c 258
 410 700 470 588 470 497 c 256
 470 427 436 378 401 352 c 257
 439 322 474 289 474 205 c 256
 474 85 383 -1 262 -1 c 258
 262 -1 137 -1 127 -1 c 257
EndSplineSet
EndChar

StartChar: C
Encoding: 67 67 12
GlifName: C_
Width: 494
VWidth: 0
GlyphClass: 2
Flags: W
LayerCount: 2
Back
Fore
SplineSet
38 181 m 257
 38 518 l 257
 38 578 92 706 239 705 c 257
 239 667 l 257
 125 667 78 568 78 518 c 257
 78 181 l 257
 78 131 126 33 239 33 c 257
 239 -5 l 257
 91 -5 38 121 38 181 c 257
284 -5 m 257
 284 33 l 257
 284 33 400 35 431 139 c 256
 434.091 149.305 436.386 161.203 437.885 171 c 256
 439.295 180.218 440 187.576 440 190 c 257
 474 182 l 257
 474 76 381 -5 284 -5 c 257
284 667 m 257
 284 705 l 257
 381 706 474 612 474 516 c 257
 438 507 l 257
 438 512.465 437.823 518.107 437.173 524 c 256
 436.276 532.125 434.478 540.726 431 550 c 256
 390 666 284 667 284 667 c 257
EndSplineSet
EndChar

StartChar: D
Encoding: 68 68 16
GlifName: D_
Width: 472
VWidth: 0
GlyphClass: 2
Flags: W
LayerCount: 2
Back
Fore
SplineSet
42 0 m 257
 42 700 l 257
 82 700 l 257
 82 0 l 257
 42 0 l 257
127 0 m 257
 127 38 l 257
 270 38 394 41 394 197 c 258
 394 503 l 257
 394 669 263 662 127 662 c 257
 127 700 l 257
 281 700 434 706 434 503 c 257
 434 197 l 257
 434 0 287 0 127 0 c 257
EndSplineSet
EndChar

StartChar: E
Encoding: 69 69 19
GlifName: E_
Width: 444
VWidth: 0
GlyphClass: 2
Flags: W
LayerCount: 2
Back
Fore
SplineSet
42 0 m 257
 42 700 l 257
 406 700 l 257
 406 662 l 257
 82 662 l 257
 82 368 l 257
 312 368 l 257
 312 330 l 257
 82 330 l 257
 82 38 l 257
 406 38 l 257
 406 0 l 257
 42 0 l 257
EndSplineSet
EndChar

StartChar: Eth
Encoding: 270 208 28
GlifName: E_th
Width: 452
VWidth: 0
GlyphClass: 2
Flags: W
LayerCount: 2
Back
Fore
SplineSet
26 335 m 257
 26 373 l 257
 82 373 l 257
 82 700 l 257
 122 700 l 257
 122 373 l 257
 178 373 l 257
 178 335 l 257
 122 335 l 257
 122 0 l 257
 82 0 l 257
 82 335 l 257
 26 335 l 257
167 0 m 257
 167 38 l 257
 310 38 434 41 434 197 c 258
 434 503 l 258
 434 669 303 662 167 662 c 257
 167 700 l 257
 321 700 474 706 474 503 c 258
 474 197 l 258
 474 0 327 0 167 0 c 257
EndSplineSet
EndChar

StartChar: Euro
Encoding: 271 8364 29
GlifName: E_U_R_O_
Width: 494
VWidth: 0
GlyphClass: 2
Flags: W
LayerCount: 2
Back
Fore
SplineSet
51 292 m 257
 51 317 l 257
 89 317 l 257
 89 377 l 257
 51 377 l 257
 51 402 l 257
 89 402 l 257
 89 518 l 258
 89 578 143 706 290 705 c 257
 290 667 l 257
 176 667 129 568 129 518 c 258
 129 402 l 257
 409 402 l 257
 409 377 l 257
 129 377 l 257
 129 317 l 257
 409 317 l 257
 409 292 l 257
 129 292 l 257
 129 181 l 258
 129 131 177 33 290 33 c 257
 290 -5 l 257
 142 -5 89 121 89 181 c 258
 89 292 l 257
 51 292 l 257
335 -5 m 257
 335 33 l 257
 335 33 451 35 482 139 c 256
 488 159 491 185 491 190 c 257
 525 182 l 257
 525 76 432 -5 335 -5 c 257
335 667 m 257
 335 705 l 257
 432 706 525 612 525 516 c 257
 489 507 l 257
 489 520 488 534 482 550 c 256
 441 666 335 667 335 667 c 257
EndSplineSet
EndChar

StartChar: F
Encoding: 70 70 30
GlifName: F_
Width: 432
VWidth: 0
GlyphClass: 2
Flags: W
LayerCount: 2
Back
Fore
SplineSet
42 1 m 257
 42 700 l 257
 406 700 l 257
 406 662 l 257
 82 662 l 257
 82 368 l 257
 312 368 l 257
 312 330 l 257
 82 330 l 257
 82 1 l 257
 42 1 l 257
EndSplineSet
EndChar

StartChar: G
Encoding: 71 71 31
GlifName: G_
Width: 507
VWidth: 0
GlyphClass: 2
Flags: W
LayerCount: 2
Back
Fore
SplineSet
38 192 m 257
 38 524 l 257
 38 586 102 706 238 705 c 257
 238 667 l 257
 155 667 78 596 78 508 c 257
 78 192 l 258
 78 77 198 33 238 33 c 257
 238 -5 l 257
 173 -5 38 48 38 192 c 257
283 -5 m 257
 283 33 l 257
 336 33 433 102 433 190 c 258
 433 315 l 257
 283 315 l 257
 283 353 l 257
 473 353 l 257
 473 176 l 258
 473 95 370 -5 283 -5 c 257
283 667 m 257
 283 705 l 257
 381 706 473 612 473 516 c 257
 434 502 l 257
 434 507.492 433.777 512.825 433.348 518 c 256
 424.236 627.785 322.154 667 283 667 c 257
EndSplineSet
EndChar

StartChar: H
Encoding: 72 72 33
GlifName: H_
Width: 478
VWidth: 0
GlyphClass: 2
Flags: W
LayerCount: 2
Back
Fore
SplineSet
42 0 m 257
 42 700 l 257
 82 700 l 257
 82 371 l 257
 216 371 l 257
 216 333 l 257
 82 333 l 257
 82 0 l 257
 42 0 l 257
262 333 m 257
 262 371 l 257
 396 371 l 257
 396 700 l 257
 436 700 l 257
 436 0 l 257
 396 0 l 257
 396 333 l 257
 262 333 l 257
EndSplineSet
EndChar

StartChar: I
Encoding: 73 73 34
GlifName: I_
Width: 124
VWidth: 0
GlyphClass: 2
Flags: W
LayerCount: 2
Back
Fore
SplineSet
42 0 m 257
 42 700 l 257
 82 700 l 257
 82 0 l 257
 42 0 l 257
EndSplineSet
EndChar

StartChar: J
Encoding: 74 74 42
GlifName: J_
Width: 484
VWidth: 0
GlyphClass: 2
Flags: W
LayerCount: 2
Back
Fore
SplineSet
15 193 m 257
 15 242 l 257
 55 242 l 257
 55 200 l 258
 55 86 155 33 206 33 c 257
 206 -5 l 257
 146 -5 15 54 15 193 c 257
252 -5 m 257
 252 33 l 257
 295 33 412 84 412 193 c 258
 412 700 l 257
 452 700 l 257
 452 193 l 257
 452 49 312 -5 252 -5 c 257
EndSplineSet
EndChar

StartChar: K
Encoding: 75 75 43
GlifName: K_
Width: 488
VWidth: 0
GlyphClass: 2
Flags: W
LayerCount: 2
Back
Fore
SplineSet
42 0 m 257
 42 700 l 257
 82 700 l 257
 82 0 l 257
 42 0 l 257
127 341 m 257
 419 700 l 257
 469 700 l 257
 177 341 l 257
 473 0 l 257
 423 0 l 257
 127 341 l 257
EndSplineSet
EndChar

StartChar: L
Encoding: 76 76 44
GlifName: L_
Width: 433
VWidth: 0
GlyphClass: 2
Flags: W
LayerCount: 2
Back
Fore
SplineSet
42 0 m 257
 42 700 l 257
 82 700 l 257
 82 38 l 257
 418 38 l 257
 418 0 l 257
 42 0 l 257
EndSplineSet
EndChar

StartChar: Lslash
Encoding: 276 321 47
GlifName: L_slash
Width: 428
VWidth: 0
GlyphClass: 2
Flags: W
LayerCount: 2
Back
Fore
SplineSet
51 271 m 257
 129 331 l 257
 129 700 l 257
 169 700 l 257
 169 361 l 257
 237 414 l 257
 262 382 l 257
 169 311 l 257
 169 38 l 257
 505 38 l 257
 505 0 l 257
 129 0 l 257
 129 280 l 257
 76 239 l 257
 51 271 l 257
EndSplineSet
EndChar

StartChar: M
Encoding: 77 77 48
GlifName: M_
Width: 696
VWidth: 0
GlyphClass: 2
Flags: W
LayerCount: 2
Back
Fore
SplineSet
42 0 m 257
 42 549 l 257
 51 549 l 257
 82 472 l 257
 82 0 l 257
 42 0 l 257
42 678 m 257
 42 700 l 257
 79 700 l 257
 343 59 l 257
 559 547 l 257
 569 547 l 257
 569 469 l 257
 362 0 l 257
 324 0 l 257
 42 678 l 257
614 0 m 257
 614 700 l 257
 654 700 l 257
 654 0 l 257
 614 0 l 257
EndSplineSet
EndChar

StartChar: N
Encoding: 78 78 49
GlifName: N_
Width: 529
VWidth: 0
GlyphClass: 2
Flags: W
LayerCount: 2
Back
Fore
SplineSet
42 0 m 257
 42 596 l 257
 50 596 l 257
 82 544 l 257
 82 0 l 257
 42 0 l 257
42 676 m 257
 42 700 l 257
 81 700 l 257
 487 53 l 257
 487 0 l 257
 466 0 l 257
 42 676 l 257
447 189 m 257
 447 700 l 257
 487 700 l 257
 487 136 l 257
 479 136 l 257
 447 189 l 257
EndSplineSet
EndChar

StartChar: O
Encoding: 79 79 53
GlifName: O_
Width: 524
VWidth: 0
GlyphClass: 2
Flags: W
LayerCount: 2
Back
Fore
SplineSet
38 195 m 258
 38 524 l 258
 38 584 103 705 235 705 c 257
 235 666 l 257
 137 666 78 566 78 508 c 258
 78 195 l 258
 78 93 180 34 234 34 c 257
 234 -5 l 257
 174 -5 38 51 38 195 c 258
289 -5 m 257
 289 34 l 257
 345 34 446 90 446 195 c 258
 446 508 l 258
 446 571 388 666 289 666 c 257
 289 705 l 257
 420 705 486 583 486 524 c 258
 486 195 l 258
 486 51 349 -5 289 -5 c 257
EndSplineSet
EndChar

StartChar: OE
Encoding: 279 338 54
GlifName: O_E_
Width: 422
VWidth: 0
GlyphClass: 2
Flags: W
LayerCount: 2
Back
Fore
SplineSet
-27 197 m 258
 -27 503 l 258
 -27 706 104 700 258 700 c 257
 258 662 l 257
 122 662 13 669 13 503 c 258
 13 197 l 258
 13 41 115 38 258 38 c 257
 258 0 l 257
 98 0 -27 0 -27 197 c 258
303 0 m 257
 303 38 l 257
 334 38 l 257
 334 662 l 257
 303 662 l 257
 303 700 l 257
 698 700 l 257
 698 662 l 257
 374 662 l 257
 374 368 l 257
 604 368 l 257
 604 330 l 257
 374 330 l 257
 374 38 l 257
 698 38 l 257
 698 0 l 257
 303 0 l 257
EndSplineSet
EndChar

StartChar: Oslash
Encoding: 282 216 61
GlifName: O_slash
Width: 674
VWidth: 0
GlyphClass: 2
Flags: W
LayerCount: 2
Back
Fore
SplineSet
24 100 m 257
 108 177 l 257
 108 524 l 258
 108 584 173 705 305 705 c 257
 305 666 l 257
 207 666 148 566 148 508 c 258
 148 212 l 257
 512 539 l 257
 497 598 443 666 359 666 c 257
 359 705 l 257
 461 705 523 631 546 570 c 257
 610 627 l 257
 636 600 l 257
 556 528 l 257
 556 195 l 258
 556 51 419 -5 359 -5 c 257
 359 34 l 257
 415 34 516 90 516 195 c 258
 516 492 l 257
 151 164 l 257
 169 81 256 34 304 34 c 257
 304 -5 l 257
 253 -5 149 35 117 134 c 257
 51 74 l 257
 24 100 l 257
EndSplineSet
EndChar

StartChar: P
Encoding: 80 80 63
GlifName: P_
Width: 479
VWidth: 0
GlyphClass: 2
Flags: W
LayerCount: 2
Back
Fore
SplineSet
42 0 m 257
 42 700 l 257
 82 700 l 257
 82 0 l 257
 42 0 l 257
127 318 m 257
 127 356 l 257
 237 356 l 258
 354 356 423 390 423 508 c 256
 423 632 360 662 236 662 c 258
 127 662 l 257
 127 700 l 257
 333 700 464 706 464 512 c 256
 464 306 322 318 127 318 c 257
EndSplineSet
EndChar

StartChar: Q
Encoding: 81 81 64
GlifName: Q_
Width: 526
VWidth: 0
GlyphClass: 2
Flags: W
LayerCount: 2
Back
Fore
SplineSet
38 195 m 258
 38 524 l 258
 38 584 103 706 239 705 c 257
 239 667 l 257
 137 667 78 574 78 508 c 258
 78 195 l 258
 78 64 215 33 239 33 c 257
 239 -5 l 257
 172 -5 38 51 38 195 c 258
285 -5 m 257
 285 33 l 257
 305 33 445 66 445 195 c 258
 445 508 l 258
 445 574 387 667 285 667 c 257
 285 705 l 257
 420 706 486 583 486 524 c 258
 486 195 l 258
 486 77 396 27 334 2 c 257
 392 -84 l 257
 360 -107 l 257
 285 -5 l 257
EndSplineSet
EndChar

StartChar: R
Encoding: 82 82 65
GlifName: R_
Width: 505
VWidth: 0
GlyphClass: 2
Flags: W
LayerCount: 2
Back
Fore
SplineSet
42 0 m 257
 42 700 l 257
 82 700 l 257
 82 0 l 257
 42 0 l 257
127 330 m 257
 127 368 l 257
 225 368 l 258
 343 368 422 411 422 496 c 256
 422 658 289 661 156 661 c 258
 127 661 l 257
 127 700 l 257
 246 700 463 718 463 496 c 256
 463 412 417 375 360 352 c 257
 402 340 456 297 462 217 c 258
 479 0 l 257
 439 0 l 257
 424 178 l 258
 413 305 383 330 127 330 c 257
EndSplineSet
EndChar

StartChar: S
Encoding: 83 83 68
GlifName: S_
Width: 481
VWidth: 0
GlyphClass: 2
Flags: W
LayerCount: 2
Back
Fore
SplineSet
20 158 m 257
 57 171 l 257
 83 42 208 35 208 35 c 257
 208 -3 l 257
 93 -3 21 103 20 158 c 257
28 514 m 256
 28 649 154 700 208 700 c 257
 208 662 l 257
 176 662 68 622 68 508 c 256
 68 387 253 387 333 365 c 256
 402 346 461 311 461 203 c 256
 461 99 368 -3 253 -3 c 257
 253 35 l 257
 306 35 421 100 421 209 c 256
 421 348 214 336 151 360 c 256
 77 388 28 421 28 514 c 256
253 662 m 257
 253 700 l 257
 363 700 425 595 433 553 c 257
 395 541 l 257
 363 658 253 662 253 662 c 257
EndSplineSet
EndChar

StartChar: T
Encoding: 84 84 71
GlifName: T_
Width: 463
VWidth: 0
GlyphClass: 2
Flags: W
LayerCount: 2
Back
Fore
SplineSet
15 662 m 257
 15 700 l 257
 448 700 l 257
 448 662 l 257
 251 662 l 257
 251 0 l 257
 211 0 l 257
 211 662 l 257
 15 662 l 257
EndSplineSet
EndChar

StartChar: Thorn
Encoding: 289 222 73
GlifName: T_horn
Width: 474
VWidth: 0
GlyphClass: 2
Flags: W
LayerCount: 2
Back
Fore
SplineSet
76 0 m 257
 76 700 l 257
 116 700 l 257
 116 0 l 257
 76 0 l 257
167 208 m 257
 167 246 l 257
 210 246 l 258
 304 246 408 264 408 398 c 256
 408 531 308 552 208 552 c 258
 167 552 l 257
 167 590 l 257
 376 597 446 548 448 398 c 256
 450 238 344 197 167 208 c 257
EndSplineSet
EndChar

StartChar: U
Encoding: 85 85 74
GlifName: U_
Width: 512
VWidth: 0
GlyphClass: 2
Flags: W
LayerCount: 2
Back
Fore
SplineSet
32 193 m 258
 32 700 l 257
 72 700 l 257
 72 193 l 257
 72 83 192 33 233 33 c 257
 233 -5 l 257
 173 -5 32 49 32 193 c 258
279 -5 m 257
 279 33 l 257
 322 33 439 78 439 193 c 257
 439 700 l 257
 479 700 l 257
 479 193 l 258
 479 48 340 -5 279 -5 c 257
EndSplineSet
EndChar

StartChar: V
Encoding: 86 86 83
GlifName: V_
Width: 472
VWidth: 0
GlyphClass: 2
Flags: W
LayerCount: 2
Back
Fore
SplineSet
8 700 m 257
 47 700 l 257
 241 34 l 257
 228 0 l 257
 211 0 l 257
 8 700 l 257
241 165 m 257
 425 700 l 257
 464 700 l 257
 424 569 307 255 265 115 c 257
 255 115 l 257
 241 165 l 257
EndSplineSet
EndChar

StartChar: W
Encoding: 87 87 84
GlifName: W_
Width: 822
VWidth: 0
GlyphClass: 2
Flags: W
LayerCount: 2
Back
Fore
SplineSet
40 700 m 257
 79 700 l 257
 269 44 l 257
 258 0 l 257
 243 0 l 257
 40 700 l 257
265 182 m 257
 403 700 l 257
 442 700 l 257
 289 130 l 257
 279 130 l 257
 265 182 l 257
403 700 m 257
 442 700 l 257
 615 38 l 257
 602 0 l 257
 587 0 l 257
 403 700 l 257
620 181 m 257
 773 700 l 257
 812 700 l 257
 645 130 l 257
 635 130 l 257
 620 181 l 257
EndSplineSet
EndChar

StartChar: X
Encoding: 88 88 85
GlifName: X_
Width: 442
VWidth: 0
GlyphClass: 2
Flags: W
LayerCount: 2
Back
Fore
SplineSet
15 0 m 257
 202 362 l 257
 27 700 l 257
 66 700 l 257
 221 398 l 257
 376 700 l 257
 415 700 l 257
 240 362 l 257
 427 0 l 257
 388 0 l 257
 221 325 l 257
 54 0 l 257
 15 0 l 257
EndSplineSet
EndChar

StartChar: Y
Encoding: 89 89 86
GlifName: Y_
Width: 451
VWidth: 0
GlyphClass: 2
Flags: W
LayerCount: 2
Back
Fore
SplineSet
12 700 m 257
 53 700 l 257
 236 253 l 257
 236 0 l 257
 196 0 l 257
 196 252 l 257
 12 700 l 257
239 357 m 257
 398 700 l 257
 439 700 l 257
 262 311 l 257
 258 311 l 257
 239 357 l 257
EndSplineSet
EndChar

StartChar: Z
Encoding: 90 90 89
GlifName: Z_
Width: 400
VWidth: 0
GlyphClass: 2
Flags: W
LayerCount: 2
Back
Fore
SplineSet
30 0 m 257
 30 35 l 257
 353 662 l 257
 30 662 l 257
 30 700 l 257
 396 700 l 257
 396 665 l 257
 73 38 l 257
 397 38 l 257
 396 0 l 257
 30 0 l 257
EndSplineSet
EndChar

StartChar: a
Encoding: 97 97 93
GlifName: a
Width: 434
VWidth: 0
GlyphClass: 2
Flags: W
LayerCount: 2
Back
Fore
SplineSet
25 121 m 258
 25 167 l 258
 25 200 31.0284 234.786 74 257 c 256
 125.849 283.802 342.124 308.114 342 347.472 c 257
 342 363 l 258
 342 441 275 483 226 483 c 257
 226 519 l 257
 333 519 383 432 383 361 c 258
 383 74 l 258
 383 66.4803 385.609 40 409 40 c 257
 409 1 l 257
 369.827 1 355.771 18.7796 343 39 c 257
 318 14 266 1 226 1 c 257
 226 39 l 257
 278 39 343 56 343 149 c 258
 343 292 l 257
 279 258.386 111.016 245.761 77 210 c 256
 70.3429 203.343 66 188.53 66 171 c 258
 66 132 l 258
 66.9701 63.6161 126.574 39 181 39 c 257
 181 1 l 257
 84 1 25 64 25 121 c 258
32 389 m 257
 31 463 108 519 181 519 c 257
 181 481 l 257
 126 481 69 438 69 375 c 257
 32 389 l 257
EndSplineSet
EndChar

StartChar: acute
Encoding: 180 180 97
GlifName: acute
Width: 308
VWidth: 0
GlyphClass: 2
Flags: W
LayerCount: 2
Back
Fore
SplineSet
115 605 m 257
 152 757 l 257
 192 757 l 257
 143 605 l 257
 115 605 l 257
EndSplineSet
EndChar

StartChar: ae
Encoding: 299 230 99
GlifName: ae
Width: 435
VWidth: 0
GlyphClass: 2
Flags: W
LayerCount: 2
Back
Fore
SplineSet
26 121 m 258
 26 157 l 258
 26 316.965 343 287.805 343 363 c 258
 343 382 l 258
 343 436.308 279.256 483 203 483 c 256
 135.933 483 70 453.433 70 375 c 257
 33 389 l 257
 31.8012 477.714 121.137 520 205 520 c 256
 274 520 333.433 493.892 365 438 c 257
 390 478 438 516 507 516 c 257
 507 478 l 257
 435 478 384 413.761 384 359 c 256
 384 334.333 384 309.667 384 285 c 257
 675 285 l 257
 675 369 l 258
 675 428 613 480 552 480 c 257
 552 516 l 257
 628 516 715 453 715 378 c 258
 715 247 l 257
 384 247 l 257
 384 141 l 258
 384 81.8653 459.972 36 532 36 c 256
 602.966 36 662.423 74.9668 679 133 c 257
 716 120 l 257
 693.753 45.0642 633.075 0 530 0 c 256
 454.549 0 397.185 28.1111 371 73 c 257
 340 19 290 0 227 1 c 257
 227 39 l 257
 283.513 39 343 52 343 149 c 258
 343 308 l 257
 303.703 263.858 66.2671 265.7 67 162 c 257
 67 142 l 258
 67 66 125 39 182 39 c 257
 182 1 l 257
 85 1 26 64 26 121 c 258
EndSplineSet
EndChar

StartChar: ampersand
Encoding: 38 38 102
GlifName: ampersand
Width: 658
VWidth: 0
GlyphClass: 2
Flags: W
LayerCount: 2
Back
Fore
SplineSet
386.836 96 m 257
 352.957 57.9133 303.33 38.8295 254.639 38.8295 c 256
 162.563 38.8295 70.2598 103.495 70.2598 213.086 c 256
 70.2598 289.112 116.633 331.663 141 351 c 257
 113 379 l 257
 57.79 334.387 30.2598 275.93 30.2598 213.086 c 256
 30.2598 82.0868 137.034 -0.708435 250.587 -0.708435 c 256
 307.894 -0.708435 366.928 20.379 414.836 67 c 257
 386.836 96 l 257
429 549 m 256
 422 598 379 658 314 666 c 257
 314 706 l 257
 391.615 695.919 453.283 636.194 468.426 559 c 257
 429 549 l 256
259 666.069 m 256
 204 661 142 614.25 142 532 c 256
 142 476.262 185.34 443.307 202 426 c 258
 454.092 164 l 257
 492 202 527.857 280.657 528 345 c 257
 568 345 l 257
 568 260 523 175 483 134 c 257
 586 27 l 257
 542 15 l 257
 168 402 l 258
 125.68 445.791 102 473.59 102 532 c 256
 102 620.729 168.033 693.764 259 706.069 c 257
 259 666.069 l 256
EndSplineSet
EndChar

StartChar: approxequal
Encoding: 302 8776 104
GlifName: approxequal
Width: 568
VWidth: 0
GlyphClass: 2
Flags: W
LayerCount: 2
Back
Fore
SplineSet
50 261 m 257
 50 297 l 257
 95 323 132 332 163 332 c 256
 250 332 299 259 387 259 c 256
 422 259 464 271 518 304 c 257
 518 270 l 257
 462 236 418 224 381 224 c 256
 289 224 239 297 157 297 c 256
 127 297 92 288 50 261 c 257
50 402 m 257
 50 439 l 257
 95 465 132 474 163 474 c 256
 250 474 299 401 387 401 c 256
 422 401 464 413 518 446 c 257
 518 411 l 257
 462 377 418 365 381 365 c 256
 289 365 239 438 157 438 c 256
 127 438 92 429 50 402 c 257
EndSplineSet
EndChar

StartChar: asciicircum
Encoding: 94 94 106
GlifName: asciicircum
Width: 446
VWidth: 0
GlyphClass: 2
Flags: W
LayerCount: 2
Back
Fore
SplineSet
60 460 m 257
 209 756 l 257
 237 756 l 257
 386 460 l 257
 345 460 l 257
 222 703 l 257
 101 460 l 257
 60 460 l 257
EndSplineSet
EndChar

StartChar: asciitilde
Encoding: 126 126 107
GlifName: asciitilde
Width: 628
VWidth: 0
GlyphClass: 2
Flags: W
LayerCount: 2
Back
Fore
SplineSet
80 320 m 257
 80 358 l 257
 125 384 162 393 193 393 c 256
 280 393 329 320 417 320 c 256
 452 320 494 332 548 365 c 257
 548 329 l 257
 492 295 448 283 411 283 c 256
 319 283 269 356 187 356 c 256
 157 356 122 347 80 320 c 257
EndSplineSet
EndChar

StartChar: asterisk
Encoding: 42 42 108
GlifName: asterisk
Width: 305
VWidth: 0
GlyphClass: 2
Flags: W
LayerCount: 2
Back
Fore
SplineSet
17 705 m 257
 40 737 l 257
 132 679 l 257
 132 785 l 257
 172 785 l 257
 172 674 l 257
 268 737 l 257
 290 705 l 257
 182 633 l 257
 290 559 l 257
 267 527 l 257
 172 595 l 257
 172 478 l 257
 132 478 l 257
 132 595 l 257
 37 531 l 257
 15 563 l 257
 124 634 l 257
 17 705 l 257
EndSplineSet
EndChar

StartChar: at
Encoding: 64 64 109
GlifName: at
Width: 722
VWidth: 0
GlyphClass: 2
Flags: W
LayerCount: 2
Back
Fore
SplineSet
16 309 m 256
 16 519 188 678 408 678 c 256
 544 678 705 590 705 413 c 256
 705 182 541 161 505 161 c 256
 469 161 430 199 424 219 c 257
 413 202 378 169 329 169 c 256
 270 169 221 229 221 304 c 256
 221 425 316 483 380 483 c 256
 430 483 447 462 459 450 c 257
 465 471 l 257
 504 471 l 257
 463 308 l 258
 460 297 456 280 453 266 c 256
 449 249 470 197 511 197 c 256
 552 197 667 226 667 412 c 256
 667 554 529 640 408 640 c 256
 217 640 56 498 56 309 c 256
 56 119 197 -14 381 -14 c 256
 484 -14 563 19 643 75 c 257
 661 41 l 257
 590 -11 496 -52 381 -52 c 256
 153 -52 16 112 16 309 c 256
EndSplineSet
EndChar

StartChar: b
Encoding: 98 98 111
GlifName: b
Width: 430
VWidth: 0
GlyphClass: 2
Flags: W
LayerCount: 2
Back
Fore
SplineSet
42 0 m 257
 42 699 l 257
 82 699 l 257
 82 0 l 257
 42 0 l 257
127 0 m 257
 127 38 l 257
 245 38 l 258
 293 38 360 86 360 143 c 257
 360 373 l 257
 360 426 300 478 245 478 c 258
 127 478 l 257
 127 516 l 257
 246 516 l 258
 328 516 400 446 400 377 c 257
 400 141 l 258
 400 92 349 0 243 0 c 258
 127 0 l 257
EndSplineSet
EndChar

StartChar: backslash
Encoding: 92 92 112
GlifName: backslash
Width: 300
VWidth: 0
GlyphClass: 2
Flags: W
LayerCount: 2
Back
Fore
SplineSet
42 716 m 257
 83 716 l 257
 258 -23 l 257
 216 -23 l 257
 42 716 l 257
EndSplineSet
EndChar

StartChar: bar
Encoding: 124 124 113
GlifName: bar
Width: 135
VWidth: 0
GlyphClass: 2
Flags: W
LayerCount: 2
Back
Fore
SplineSet
50 -134 m 257
 50 754 l 257
 85 754 l 257
 85 -134 l 257
 50 -134 l 257
EndSplineSet
EndChar

StartChar: braceleft
Encoding: 123 123 114
GlifName: braceleft
Width: 219
VWidth: 0
GlyphClass: 2
Flags: W
LayerCount: 2
Back
Fore
SplineSet
15 348 m 257
 51 363 76 370 77 408 c 258
 77 557 l 258
 77 706 116 735 199 735 c 257
 199 701 l 257
 127 701 117 684 117 469 c 257
 117 383 l 258
 117 366 111 354 87 348 c 257
 112 340 117 325 117 304 c 258
 117 207 l 257
 117 10 154 -4 199 -4 c 257
 199 -38 l 257
 118 -38 77 5 77 138 c 258
 77 290 l 258
 77 322 51 329 15 348 c 257
EndSplineSet
EndChar

StartChar: braceright
Encoding: 125 125 115
GlifName: braceright
Width: 219
VWidth: 0
GlyphClass: 2
Flags: W
LayerCount: 2
Back
Fore
SplineSet
20 -38 m 257
 20 -4 l 257
 65 -4 102 10 102 207 c 257
 102 304 l 258
 102 325 107 340 132 348 c 257
 108 354 102 366 102 383 c 258
 102 469 l 257
 102 684 92 701 20 701 c 257
 20 735 l 257
 103 735 142 706 142 557 c 258
 142 408 l 258
 143 370 168 363 204 348 c 257
 168 329 142 322 142 290 c 258
 142 138 l 258
 142 5 101 -38 20 -38 c 257
EndSplineSet
EndChar

StartChar: bracketleft
Encoding: 91 91 116
GlifName: bracketleft
Width: 258
VWidth: 0
GlyphClass: 2
Flags: W
LayerCount: 2
Back
Fore
SplineSet
95 -36 m 257
 95 739 l 257
 175 739 l 257
 175 701 l 257
 136 701 l 257
 133 2 l 257
 175 2 l 257
 175 -36 l 257
 95 -36 l 257
EndSplineSet
EndChar

StartChar: bracketright
Encoding: 93 93 117
GlifName: bracketright
Width: 258
VWidth: 0
GlyphClass: 2
Flags: W
LayerCount: 2
Back
Fore
SplineSet
83 -36 m 257
 83 2 l 257
 125 2 l 257
 122 701 l 257
 83 701 l 257
 83 739 l 257
 163 739 l 257
 163 -36 l 257
 83 -36 l 257
EndSplineSet
EndChar

StartChar: breve
Encoding: 162 728 118
GlifName: breve
Width: 244
VWidth: 0
GlyphClass: 2
Flags: W
LayerCount: 2
Back
Fore
SplineSet
58 526 m 257
 90 526 l 257
 90 508 104 494 122 494 c 256
 140 494 154 508 154 526 c 257
 186 526 l 257
 186 505 166 464 122 464 c 256
 78 464 58 505 58 526 c 257
EndSplineSet
EndChar

StartChar: brokenbar
Encoding: 305 166 119
GlifName: brokenbar
Width: 132
VWidth: 0
GlyphClass: 2
Flags: W
LayerCount: 2
Back
Fore
SplineSet
42 -134 m 257
 42 221 l 257
 82 221 l 257
 82 -134 l 257
 42 -134 l 257
42 399 m 257
 42 754 l 257
 82 754 l 257
 82 399 l 257
 42 399 l 257
EndSplineSet
EndChar

StartChar: bullet
Encoding: 306 8226 120
GlifName: bullet
Width: 352
VWidth: 0
GlyphClass: 2
Flags: W
LayerCount: 2
Back
Fore
SplineSet
116 345 m 256
 116 379 142 405 176 405 c 256
 210 405 236 379 236 345 c 256
 236 311 210 285 176 285 c 256
 142 285 116 311 116 345 c 256
EndSplineSet
EndChar

StartChar: c
Encoding: 99 99 121
GlifName: c
Width: 420
VWidth: 0
GlyphClass: 2
Flags: W
LayerCount: 2
Back
Fore
SplineSet
38 141 m 256
 38 166 38 281 38 372 c 256
 38 431 91 516 198 516 c 257
 198 478 l 257
 127 478 79 414 79 369 c 258
 79 141 l 258
 79 100 127 38 197 38 c 257
 197 0 l 257
 76 0 38 94 38 141 c 256
242 477 m 257
 242 516 l 257
 323 516 389 451 389 372 c 257
 350 358 l 257
 350 363.538 349.722 368.87 349.188 374 c 256
 341.825 444.829 285.826 477 242 477 c 257
241 -1 m 257
 241 37 l 257
 296.818 37 352.637 83.7354 360.146 145 c 256
 360.709 149.59 361 154.261 361 159 c 257
 400 144 l 257
 400 65 321 -1 241 -1 c 257
EndSplineSet
EndChar

StartChar: caron
Encoding: 308 711 123
GlifName: caron
Width: 270
VWidth: 0
GlyphClass: 2
Flags: W
LayerCount: 2
Back
Fore
SplineSet
43 666 m 257
 79 666 l 257
 135 553 l 257
 190 666 l 257
 226 666 l 257
 151 514 l 257
 119 514 l 257
 43 666 l 257
EndSplineSet
EndChar

StartChar: cedilla
Encoding: 184 184 126
GlifName: cedilla
Width: 399
VWidth: 0
GlyphClass: 2
Flags: W
LayerCount: 2
Back
Fore
SplineSet
123 -9 m 257
 123 29 l 257
 182 29 224 68 224 123 c 257
 264 123 l 257
 264 67 224 -9 123 -9 c 257
EndSplineSet
EndChar

StartChar: cent
Encoding: 310 162 127
GlifName: cent
Width: 420
VWidth: 0
GlyphClass: 2
Flags: W
LayerCount: 2
Back
Fore
SplineSet
242 24 m 257
 265 24 l 257
 265 -61 l 257
 242 -61 l 257
 242 24 l 257
175 24 m 257
 198 24 l 257
 198 -61 l 257
 175 -61 l 257
 175 24 l 257
242 577 m 257
 265 577 l 257
 265 492 l 257
 242 492 l 257
 242 577 l 257
175 577 m 257
 198 577 l 257
 198 492 l 257
 175 492 l 257
 175 577 l 257
38 141 m 256
 38 166 38 281 38 372 c 256
 38 431 91 516 198 516 c 257
 198 478 l 257
 127 478 79 414 79 369 c 258
 79 141 l 258
 79 100 128 38 198 38 c 257
 198 0 l 257
 77 0 38 94 38 141 c 256
242 477 m 257
 242 516 l 257
 323 516 389 451 389 372 c 257
 350 358 l 257
 350 362.113 349.847 366.113 349.549 370 c 256
 343.916 443.619 286.643 477 242 477 c 257
242 -1 m 257
 242 37 l 257
 296.597 37 350.366 81.7127 359.607 141 c 256
 360.522 146.867 361 152.877 361 159 c 257
 400 144 l 257
 400 65 322 -1 242 -1 c 257
EndSplineSet
EndChar

StartChar: circumflex
Encoding: 311 710 128
GlifName: circumflex
Width: 270
VWidth: 0
GlyphClass: 2
Flags: W
LayerCount: 2
Back
Fore
SplineSet
43 514 m 257
 118 666 l 257
 150 666 l 257
 226 514 l 257
 190 514 l 257
 134 627 l 257
 79 514 l 257
 43 514 l 257
EndSplineSet
EndChar

StartChar: colon
Encoding: 58 58 129
GlifName: colon
Width: 153
VWidth: 0
GlyphClass: 2
Flags: W
LayerCount: 2
Back
Fore
SplineSet
50 21 m 256
 50 35 62 47 76 47 c 256
 90 47 102 35 102 21 c 256
 102 7 90 -5 76 -5 c 256
 62 -5 50 7 50 21 c 256
51 311 m 256
 51 325 63 337 77 337 c 256
 91 337 103 325 103 311 c 256
 103 297 91 285 77 285 c 256
 63 285 51 297 51 311 c 256
EndSplineSet
EndChar

StartChar: comma
Encoding: 44 44 130
GlifName: comma
Width: 177
VWidth: 0
GlyphClass: 2
Flags: W
LayerCount: 2
Back
Fore
SplineSet
51 -23 m 257
 88 129 l 257
 127 129 l 257
 90 -23 l 257
 51 -23 l 257
EndSplineSet
EndChar

StartChar: copyright
Encoding: 312 169 131
GlifName: copyright
Width: 764
VWidth: 0
GlyphClass: 2
Flags: W
LayerCount: 2
Back
Fore
SplineSet
35 339 m 256
 35 577 241 696 370 694 c 257
 370 664 l 257
 235 664 64 544 64 339 c 256
 64 174.182 197.077 17 370 17 c 257
 370 -16 l 257
 192.26 -16 35 139.904 35 339 c 256
241 247 m 256
 241 267 241 358 241 429 c 256
 241 486 282 565 371 565 c 257
 371 535 l 257
 301 535 273 470 273 426 c 258
 273 247 l 258
 273 195 312 142 371 142 c 257
 371 113 l 257
 269 113 241 199 241 247 c 256
405 -16 m 257
 405 17 l 257
 568.913 17 705 175.262 705 339 c 256
 705 521 556 664 405 664 c 257
 405 694 l 257
 558 694 734 552 734 339 c 256
 734 138.039 569.761 -16 405 -16 c 257
405 112 m 257
 405 142 l 257
 449.323 142 488.574 184.603 490.626 234 c 258
 491 243 l 257
 521 232 l 257
 521 170 468 112 405 112 c 257
405 534 m 257
 405 565 l 257
 469 565 519 508 519 446 c 257
 488 435 l 257
 488 437.039 488 441 488 441 c 258
 488 498.24 440.533 534 405 534 c 257
EndSplineSet
EndChar

StartChar: currency
Encoding: 164 164 132
GlifName: currency
Width: 598
VWidth: 0
GlyphClass: 2
Flags: W
LayerCount: 2
Back
Fore
SplineSet
40 164 m 257
 119 236 l 257
 113 250 111 263 111 274 c 258
 111 456 l 258
 111 467 114 481 120 495 c 257
 40 567 l 257
 65 596 l 257
 139 530 l 257
 165 565 211 596 275 596 c 257
 275 558 l 257
 195 558 151 490 151 443 c 258
 151 287 l 258
 151 244 202 170 275 170 c 257
 275 132 l 257
 210 132 165 165 139 201 c 257
 65 135 l 257
 40 164 l 257
316 132 m 257
 316 170 l 257
 391 170 435 241 435 285 c 258
 435 443 l 258
 435 488 391 558 316 558 c 257
 316 596 l 257
 379 596 423 565 448 529 c 257
 523 596 l 257
 548 567 l 257
 467 494 l 257
 472 480 475 467 475 456 c 258
 475 274 l 258
 475 263 472 250 467 236 c 257
 548 164 l 257
 522 135 l 257
 448 201 l 257
 423 165 379 132 316 132 c 257
EndSplineSet
EndChar

StartChar: d
Encoding: 100 100 133
GlifName: d
Width: 430
VWidth: 0
GlyphClass: 2
Flags: W
LayerCount: 2
Back
Fore
SplineSet
30 141 m 258
 30 377 l 257
 30 446 102 516 184 516 c 258
 303 516 l 257
 303 478 l 257
 185 478 l 258
 130 478 70 426 70 373 c 257
 70 143 l 257
 70 86 137 38 185 38 c 258
 303 38 l 257
 303 0 l 257
 187 0 l 258
 81 0 30 92 30 141 c 258
348 0 m 257
 348 699 l 257
 388 699 l 257
 388 0 l 257
 348 0 l 257
EndSplineSet
EndChar

StartChar: dagger
Encoding: 313 8224 134
GlifName: dagger
Width: 453
VWidth: 0
GlyphClass: 2
Flags: W
LayerCount: 2
Back
Fore
SplineSet
26 493 m 257
 26 531 l 257
 206 531 l 257
 206 764 l 257
 246 764 l 257
 246 531 l 257
 427 531 l 257
 427 493 l 257
 246 493 l 257
 246 -56 l 257
 206 -56 l 257
 206 493 l 257
 26 493 l 257
EndSplineSet
EndChar

StartChar: daggerdbl
Encoding: 314 8225 135
GlifName: daggerdbl
Width: 453
VWidth: 0
GlyphClass: 2
Flags: W
LayerCount: 2
Back
Fore
SplineSet
26 174 m 257
 26 212 l 257
 207 212 l 257
 207 496 l 257
 26 496 l 257
 26 534 l 257
 207 534 l 257
 207 764 l 257
 247 764 l 257
 247 534 l 257
 427 534 l 257
 427 496 l 257
 247 496 l 257
 247 212 l 257
 427 212 l 257
 427 174 l 257
 247 174 l 257
 247 -56 l 257
 207 -56 l 257
 207 174 l 257
 26 174 l 257
EndSplineSet
EndChar

StartChar: dcroat
Encoding: 316 273 137
GlifName: dcroat
Width: 414
VWidth: 0
GlyphClass: 2
Flags: W
LayerCount: 2
Back
Fore
SplineSet
26 141 m 258
 26 377 l 258
 26 446 98 516 180 516 c 258
 299 516 l 257
 299 478 l 257
 181 478 l 258
 126 478 66 426 66 373 c 258
 66 143 l 258
 66 86 133 38 181 38 c 258
 299 38 l 257
 299 0 l 257
 183 0 l 258
 77 0 26 92 26 141 c 258
280 587 m 257
 280 625 l 257
 344 625 l 257
 344 699 l 257
 384 699 l 257
 384 625 l 257
 448 625 l 257
 448 587 l 257
 384 587 l 257
 384 0 l 257
 344 0 l 257
 344 587 l 257
 280 587 l 257
EndSplineSet
EndChar

StartChar: degree
Encoding: 176 176 138
GlifName: degree
Width: 209
VWidth: 0
GlyphClass: 2
Flags: W
LayerCount: 2
Back
Fore
SplineSet
35 583 m 256
 35 621 66 652 104 652 c 256
 142 652 174 621 174 583 c 256
 174 545 142 514 104 514 c 256
 66 514 35 545 35 583 c 256
66 583 m 256
 66 562 83 545 104 545 c 256
 126 545 143 562 143 583 c 256
 143 605 126 622 104 622 c 256
 83 622 66 605 66 583 c 256
EndSplineSet
EndChar

StartChar: dieresis
Encoding: 168 168 139
GlifName: dieresis
Width: 266
VWidth: 0
GlyphClass: 2
Flags: W
LayerCount: 2
Back
Fore
SplineSet
55 679 m 256
 55 694 68 706 83 706 c 256
 98 706 110 694 110 679 c 256
 110 664 98 652 83 652 c 256
 68 652 55 664 55 679 c 256
156 679 m 256
 156 694 169 706 184 706 c 256
 199 706 211 694 211 679 c 256
 211 664 199 652 184 652 c 256
 169 652 156 664 156 679 c 256
EndSplineSet
EndChar

StartChar: divide
Encoding: 247 247 140
GlifName: divide
Width: 650
VWidth: 0
GlyphClass: 2
Flags: W
LayerCount: 2
Back
Fore
SplineSet
100 273 m 257
 100 311 l 257
 550 311 l 257
 550 273 l 257
 100 273 l 257
EndSplineSet
Refer: 236 46 N 1 0 0 1 283 376 2
Refer: 236 46 N 1 0 0 1 283 199 2
EndChar

StartChar: dollar
Encoding: 36 36 141
GlifName: dollar
Width: 481
VWidth: 0
GlyphClass: 2
Flags: W
LayerCount: 2
Back
Fore
SplineSet
20 158 m 257
 57 171 l 257
 83 42 208 35 208 35 c 257
 208 -47 l 257
 178 -47 l 257
 178 -1 l 257
 81 15 21 108 20 158 c 257
28 514 m 256
 28 628 118 682 178 696 c 257
 178 750 l 257
 208 750 l 257
 208 662 l 257
 176 662 68 622 68 508 c 256
 68 434 136 405 208 389 c 257
 208 348 l 257
 185 352 165 355 151 360 c 256
 77 388 28 421 28 514 c 256
253 -47 m 257
 253 35 l 257
 306 35 421 100 421 209 c 256
 421 300 332 326 253 340 c 257
 253 380 l 257
 283 375 312 371 333 365 c 256
 402 346 461 311 461 203 c 256
 461 108 384 15 283 -1 c 257
 283 -47 l 257
 253 -47 l 257
253 662 m 257
 253 750 l 257
 283 750 l 257
 283 697 l 257
 374 680 426 591 433 553 c 257
 395 541 l 257
 363 658 253 662 253 662 c 257
EndSplineSet
EndChar

StartChar: dotaccent
Encoding: 255 729 142
GlifName: dotaccent
Width: 202
VWidth: 0
GlyphClass: 2
Flags: W
LayerCount: 2
Back
Fore
SplineSet
71 678 m 256
 71 695 84 709 101 709 c 256
 118 709 131 695 131 678 c 256
 131 661 118 648 101 648 c 256
 84 648 71 661 71 678 c 256
EndSplineSet
EndChar

StartChar: dotlessi
Encoding: 185 305 143
GlifName: dotlessi
Width: 174
VWidth: 0
GlyphClass: 2
Flags: W
LayerCount: 2
Back
Fore
SplineSet
68 0 m 257
 68 516 l 257
 108 516 l 257
 108 0 l 257
 68 0 l 257
EndSplineSet
EndChar

StartChar: e
Encoding: 101 101 144
GlifName: e
Width: 448
VWidth: 0
GlyphClass: 2
Flags: W
LayerCount: 2
Back
Fore
SplineSet
38 141 m 258
 38 377 l 257
 39 425 94 516 201 516 c 257
 201 478 l 257
 129 478 78 410 78 369 c 258
 78 285 l 257
 369 285 l 257
 369 369 l 258
 369 428 307 480 246 480 c 257
 246 516 l 257
 322 516 409 453 409 378 c 258
 409 247 l 257
 78 247 l 257
 78 141 l 258
 78 105 135 38 202 38 c 257
 202 0 l 257
 95 0 38 93 38 141 c 258
246 0 m 257
 246 41 l 257
 317 41 362 98 371 134 c 257
 410 120 l 257
 391 56 334 0 246 0 c 257
EndSplineSet
EndChar

StartChar: eight
Encoding: 56 56 151
GlifName: eight
Width: 475
VWidth: 0
GlyphClass: 2
Flags: W
LayerCount: 2
Back
Fore
SplineSet
207 0 m 257
 84.5729 0 15.0499 97.2624 15.0499 193.787 c 256
 15.0499 253.568 30.7173 310.066 99 349 c 257
 43.7182 385.244 19.0528 441.728 19.0528 498.773 c 256
 19.0528 597.544 92.9987 698 210 698 c 257
 210 660 l 257
 106 656 60 572 60 501 c 256
 60 434 103 368 209 368 c 257
 209 330 l 257
 144 330 54 308 54 199 c 256
 54 90 128 42 207 38 c 257
 207 0 l 257
262 0 m 257
 262 38 l 257
 341 42 415 90 415 199 c 256
 415 308 325 330 260 330 c 257
 260 368 l 257
 366 368 409 434 409 501 c 256
 409 572 363 656 259 660 c 257
 259 698 l 257
 376.001 698 449.947 597.544 449.947 498.772 c 256
 449.947 441.728 425.282 385.244 370 349 c 257
 438.283 310.066 453.95 253.568 453.95 193.787 c 256
 453.95 97.2627 384.427 0 262 0 c 257
EndSplineSet
EndChar

StartChar: ellipsis
Encoding: 319 8230 152
GlifName: ellipsis
Width: 656
VWidth: 0
GlyphClass: 2
Flags: W
LayerCount: 2
Back
Fore
SplineSet
50 4 m 256
 50 18 62 30 76 30 c 256
 90 30 102 18 102 4 c 256
 102 -10 90 -22 76 -22 c 256
 62 -22 50 -10 50 4 c 256
302 4 m 256
 302 18 314 30 328 30 c 256
 342 30 354 18 354 4 c 256
 354 -10 342 -22 328 -22 c 256
 314 -22 302 -10 302 4 c 256
554 4 m 256
 554 18 566 30 580 30 c 256
 594 30 606 18 606 4 c 256
 606 -10 594 -22 580 -22 c 256
 566 -22 554 -10 554 4 c 256
EndSplineSet
EndChar

StartChar: emdash
Encoding: 321 8212 154
GlifName: emdash
Width: 906
VWidth: 0
GlyphClass: 2
Flags: W
LayerCount: 2
Back
Fore
SplineSet
26 274 m 257
 26 312 l 257
 880 312 l 257
 880 274 l 257
 26 274 l 257
EndSplineSet
EndChar

StartChar: endash
Encoding: 322 8211 155
GlifName: endash
Width: 532
VWidth: 0
GlyphClass: 2
Flags: W
LayerCount: 2
Back
Fore
SplineSet
26 275 m 257
 26 313 l 257
 506 313 l 257
 506 275 l 257
 26 275 l 257
EndSplineSet
EndChar

StartChar: equal
Encoding: 61 61 157
GlifName: equal
Width: 418
VWidth: 0
GlyphClass: 2
Flags: W
LayerCount: 2
Back
Fore
SplineSet
50 218 m 257
 50 258 l 257
 368 258 l 257
 368 218 l 257
 50 218 l 257
50 325 m 257
 50 365 l 257
 368 365 l 257
 368 325 l 257
 50 325 l 257
EndSplineSet
EndChar

StartChar: estimated
Encoding: 324 8494 158
GlifName: estimated
Width: 531
VWidth: 0
GlyphClass: 2
Flags: W
LayerCount: 2
Back
Fore
SplineSet
214 1 m 257
 94 1 30 102 30 211 c 258
 30 496 l 257
 30 594 94 705 214 705 c 257
 214 667 l 257
 134 667 70 598 70 488 c 258
 70 335 l 257
 412 335 l 257
 412 488 l 258
 412 598 349 667 269 667 c 257
 269 705 l 257
 389 705 452 594 452 497 c 258
 452 297 l 257
 70 297 l 257
 70 219 l 258
 70 98 134 39 214 39 c 257
 214 1 l 257
270 0 m 257
 270 41 l 257
 341 41 405 92 414 134 c 257
 453 120 l 257
 434 56 358 0 270 0 c 257
EndSplineSet
EndChar

StartChar: eth
Encoding: 325 240 159
GlifName: eth
Width: 420
VWidth: 0
GlyphClass: 2
Flags: W
LayerCount: 2
Back
Fore
SplineSet
28 141 m 258
 28 376 l 258
 28 425 82 516 192 516 c 257
 192 478 l 257
 112 478 68 410 68 363 c 258
 68 154 l 258
 68 111 119 37 192 37 c 257
 192 -1 l 257
 80 -1 28 93 28 141 c 258
192 686 m 257
 192 714 l 257
 242 705 298 683 338 632 c 257
 397 649 l 257
 408 613 l 257
 359 598 l 257
 380 558 392 506 392 436 c 258
 392 141 l 258
 392 92 341 -1 233 -1 c 257
 233 37 l 257
 308 37 352 108 352 152 c 258
 351 373 l 258
 351 418 303 478 233 478 c 257
 233 516 l 257
 283 516 321 497 347 471 c 257
 347 520 336 558 320 587 c 257
 255 567 l 257
 244 604 l 257
 298 620 l 257
 265 658 221 675 192 686 c 257
EndSplineSet
EndChar

StartChar: exclam
Encoding: 33 33 160
GlifName: exclam
Width: 146
VWidth: 0
GlyphClass: 2
Flags: W
LayerCount: 2
Back
Fore
SplineSet
47 23 m 256
 47 37 59 49 73 49 c 256
 87 49 99 37 99 23 c 256
 99 9 87 -3 73 -3 c 256
 59 -3 47 9 47 23 c 256
53 166 m 257
 53 700 l 257
 93 700 l 257
 93 166 l 257
 53 166 l 257
EndSplineSet
EndChar

StartChar: exclamdown
Encoding: 326 161 161
GlifName: exclamdown
Width: 138
VWidth: 0
GlyphClass: 2
Flags: W
LayerCount: 2
Back
Fore
SplineSet
20 489 m 256
 20 504 33 516 48 516 c 256
 63 516 75 504 75 489 c 256
 75 474 63 462 48 462 c 256
 33 462 20 474 20 489 c 256
28 -94 m 257
 28 422 l 257
 68 422 l 257
 68 -94 l 257
 28 -94 l 257
EndSplineSet
EndChar

StartChar: f
Encoding: 102 102 162
GlifName: f
Width: 208
VWidth: 0
GlyphClass: 2
Flags: W
LayerCount: 2
Back
Fore
SplineSet
15 439 m 257
 15 477 l 257
 78 477 l 257
 78 552 l 258
 78 597 91 696 197 696 c 258
 208 696 l 257
 199 658 l 257
 194 658 l 258
 128.472 655.334 118 599.809 118 552 c 258
 118 476 l 257
 181 477 l 257
 181 439 l 257
 118 439 l 257
 118 0 l 257
 78 0 l 257
 78 439 l 257
 15 439 l 257
EndSplineSet
EndChar

StartChar: fi
Encoding: 327 64257 163
GlifName: fi
Width: 494
VWidth: 0
GlyphClass: 2
Flags: W
LayerCount: 2
Back
Fore
SplineSet
66 439 m 257
 66 477 l 257
 129 477 l 257
 129 552 l 258
 129 597 142 696 248 696 c 258
 259 696 l 257
 250 658 l 257
 246.158 658 242.494 657.828 239 657.496 c 256
 178.826 651.768 169 598.311 169 552 c 258
 169 476 l 257
 315 476 l 257
 315 0 l 257
 275 0 l 257
 275 439 l 257
 169 439 l 257
 169 0 l 257
 129 0 l 257
 129 439 l 257
 66 439 l 257
267 583 m 256
 267 598 280 610 295 610 c 256
 310 610 322 598 322 583 c 256
 322 568 310 556 295 556 c 256
 280 556 267 568 267 583 c 256
EndSplineSet
EndChar

StartChar: five
Encoding: 53 53 164
GlifName: five
Width: 475
VWidth: 0
GlyphClass: 2
Flags: W
LayerCount: 2
Back
Fore
SplineSet
20 354 m 257
 49 700 l 257
 403 700 l 257
 403 662 l 257
 85 661 l 257
 64 398 l 257
 92 420 137 447 202 447 c 257
 202 409 l 257
 150 409 101 386 59 330 c 257
 20 354 l 257
247 0 m 257
 247 38 l 257
 311 38 421 96 421 224 c 256
 421 366 311 409 247 409 c 257
 247 447 l 257
 395 447 460 333 460 223 c 256
 460 78 352 2 247 0 c 257
22 107 m 257
 55 129 l 257
 90 68 128 44 202 38 c 257
 202 0 l 257
 118 0 54 46 22 107 c 257
EndSplineSet
EndChar

StartChar: fl
Encoding: 328 64258 165
GlifName: fl
Width: 314
VWidth: 0
GlyphClass: 2
Flags: W
LayerCount: 2
Back
Fore
SplineSet
66 439 m 257
 66 477 l 257
 129 477 l 257
 129 552 l 258
 129 597 142 696 248 696 c 258
 333 696 l 257
 333 0 l 257
 293 0 l 257
 293 658 l 257
 276 658 246 658 246 658 c 257
 166 657 169 552 169 552 c 257
 169 476 l 257
 232 477 l 257
 232 439 l 257
 169 439 l 257
 169 0 l 257
 129 0 l 257
 129 439 l 257
 66 439 l 257
EndSplineSet
EndChar

StartChar: florin
Encoding: 329 402 166
GlifName: florin
Width: 382
VWidth: 0
GlyphClass: 2
Flags: W
LayerCount: 2
Back
Fore
SplineSet
26 -168 m 257
 36 -130 l 257
 65 -130 l 258
 126 -130 141 -86 141 -43 c 258
 141 438 l 257
 78 438 l 257
 78 476 l 257
 141 476 l 257
 141 535 l 258
 141 606 192 695 295 696 c 258
 356 696 l 257
 347 658 l 257
 320 658 l 258
 220 658 181 608 181 527 c 258
 181 475 l 257
 247 476 l 257
 247 438 l 257
 181 438 l 257
 181 -30 l 258
 181 -92 169 -168 57 -168 c 258
 26 -168 l 257
EndSplineSet
EndChar

StartChar: four
Encoding: 52 52 167
GlifName: four
Width: 497
VWidth: 0
GlyphClass: 2
Flags: W
LayerCount: 2
Back
Fore
SplineSet
26 145 m 257
 26 183 l 257
 317 677 l 257
 317 608 l 257
 69 183 l 257
 317 183 l 257
 317 145 l 257
 26 145 l 257
362 0 m 257
 362 701 l 257
 403 701 l 257
 403 183 l 257
 457 183 l 257
 457 145 l 257
 403 145 l 257
 403 0 l 257
 362 0 l 257
EndSplineSet
EndChar

StartChar: fraction
Encoding: 330 8260 168
GlifName: fraction
Width: 468
VWidth: 0
GlyphClass: 2
Flags: W
LayerCount: 2
Back
Fore
SplineSet
0 0 m 257
 432 700 l 257
 468 700 l 257
 36 0 l 257
 0 0 l 257
EndSplineSet
EndChar

StartChar: g
Encoding: 103 103 169
GlifName: g
Width: 419
VWidth: 0
GlyphClass: 2
Flags: W
LayerCount: 2
Back
Fore
SplineSet
20 -181 m 257
 31 -143 l 257
 211 -143 l 257
 294 -140 343 -82 343 -40 c 258
 343 54 l 257
 333 39 291 0 228 -1 c 257
 228 34 l 257
 280 34 343 88 343 139 c 258
 343 374 l 258
 343 444.676 268.131 478 228 478 c 257
 228 516 l 257
 280 516 330 484 343 465 c 257
 343 516 l 257
 383 516 l 257
 383 -40 l 258
 383 -83 333 -180 230 -181 c 257
 20 -181 l 257
29 139 m 258
 29 378 l 257
 30 424 77 516 183 516 c 257
 183 478 l 257
 119 478 69 415 69 375 c 258
 69 140 l 258
 69 102 116 37 183 37 c 257
 183 -1 l 257
 74 0 29 94 29 139 c 258
EndSplineSet
EndChar

StartChar: germandbls
Encoding: 223 223 171
GlifName: germandbls
Width: 522
VWidth: 0
GlyphClass: 2
Flags: W
LayerCount: 2
Back
Fore
SplineSet
26 0 m 257
 26 457 l 258
 27 531 16 705 226 705 c 256
 396 705 406 575 406 518 c 258
 406 406 l 257
 355 406 l 258
 322 407 305 386 305 371 c 256
 305 349 310 326 391 299 c 256
 441 282 496 247 496 153 c 256
 496 60 420 0 327 0 c 258
 199 0 l 257
 199 38 l 257
 299 38 l 258
 376 38 458 64 458 153 c 256
 458 222 441 233 386 261 c 256
 338 285 265 296 265 371 c 256
 265 432 320 447 366 444 c 257
 366 456 l 258
 366 554 382 667 226 667 c 256
 78 667 66 554 66 498 c 258
 66 0 l 257
 26 0 l 257
EndSplineSet
EndChar

StartChar: grave
Encoding: 96 96 172
GlifName: grave
Width: 259
VWidth: 0
GlyphClass: 2
Flags: W
LayerCount: 2
Back
Fore
SplineSet
42 757 m 257
 82 757 l 257
 119 605 l 257
 90 605 l 257
 42 757 l 257
EndSplineSet
EndChar

StartChar: greater
Encoding: 62 62 173
GlifName: greater
Width: 414
VWidth: 0
GlyphClass: 2
Flags: W
LayerCount: 2
Back
Fore
SplineSet
30 79 m 257
 30 119 l 257
 338 292 l 257
 30 460 l 257
 30 500 l 257
 384 308 l 257
 384 276 l 257
 30 79 l 257
EndSplineSet
EndChar

StartChar: greaterequal
Encoding: 331 8805 174
GlifName: greaterequal
Width: 414
VWidth: 0
GlyphClass: 2
Flags: W
LayerCount: 2
Back
Fore
SplineSet
30 145 m 257
 30 185 l 257
 338 358 l 257
 30 526 l 257
 30 566 l 257
 384 374 l 257
 384 342 l 257
 30 145 l 257
27 53 m 257
 27 91 l 257
 384 91 l 257
 384 53 l 257
 27 53 l 257
EndSplineSet
EndChar

StartChar: guillemotleft
Encoding: 332 171 175
GlifName: guillemotleft
Width: 475
VWidth: 0
GlyphClass: 2
Flags: W
LayerCount: 2
Back
Fore
SplineSet
27 281 m 257
 27 299 l 257
 238 455 l 257
 238 405 l 257
 82 292 l 257
 238 174 l 257
 238 124 l 257
 27 281 l 257
238 281 m 257
 238 299 l 257
 449 455 l 257
 449 405 l 257
 293 292 l 257
 449 174 l 257
 449 124 l 257
 238 281 l 257
EndSplineSet
EndChar

StartChar: guillemotright
Encoding: 333 187 176
GlifName: guillemotright
Width: 457
VWidth: 0
GlyphClass: 2
Flags: W
LayerCount: 2
Back
Fore
SplineSet
15 144 m 257
 15 184 l 257
 191 292 l 257
 15 394 l 257
 15 434 l 257
 226 309 l 257
 226 271 l 257
 15 144 l 257
226 144 m 257
 226 184 l 257
 402 292 l 257
 226 394 l 257
 226 434 l 257
 437 309 l 257
 437 271 l 257
 226 144 l 257
EndSplineSet
EndChar

StartChar: guilsinglleft
Encoding: 334 8249 177
GlifName: guilsinglleft
Width: 338
VWidth: 0
GlyphClass: 2
Flags: W
LayerCount: 2
Back
Fore
SplineSet
76 292 m 257
 207 500 l 257
 257 500 l 257
 126 292 l 257
 257 79 l 257
 207 79 l 257
 76 292 l 257
EndSplineSet
EndChar

StartChar: guilsinglright
Encoding: 335 8250 178
GlifName: guilsinglright
Width: 338
VWidth: 0
GlyphClass: 2
Flags: W
LayerCount: 2
Back
Fore
SplineSet
78 79 m 257
 209 292 l 257
 78 500 l 257
 128 500 l 257
 259 292 l 257
 128 79 l 257
 78 79 l 257
EndSplineSet
EndChar

StartChar: h
Encoding: 104 104 179
GlifName: h
Width: 437
VWidth: 0
GlyphClass: 2
Flags: W
LayerCount: 2
Back
Fore
SplineSet
42 1 m 257
 42 698 l 257
 81 698 l 257
 81 454 l 257
 98 478 138 511 205 511 c 257
 205 473 l 257
 147 473 82 420 82 365 c 258
 82 1 l 257
 42 1 l 257
250 473 m 257
 250 511 l 257
 349 511 407 443 407 374 c 258
 407 1 l 257
 367 1 l 257
 367 365 l 258
 367 418 330 473 250 473 c 257
EndSplineSet
EndChar

StartChar: hyphen
Encoding: 45 45 181
GlifName: hyphen
Width: 416
VWidth: 0
GlyphClass: 2
Flags: W
LayerCount: 2
Back
Fore
SplineSet
50 275 m 257
 50 313 l 257
 366 313 l 257
 366 275 l 257
 50 275 l 257
EndSplineSet
EndChar

StartChar: i
Encoding: 105 105 182
GlifName: i
Width: 139
VWidth: 0
GlyphClass: 2
Flags: W
LayerCount: 2
Back
Fore
SplineSet
42 583 m 256
 42 598 55 610 70 610 c 256
 85 610 97 598 97 583 c 256
 97 568 85 556 70 556 c 256
 55 556 42 568 42 583 c 256
50 0 m 257
 50 516 l 257
 90 516 l 257
 90 0 l 257
 50 0 l 257
EndSplineSet
EndChar

StartChar: infinity
Encoding: 338 8734 188
GlifName: infinity
Width: 798
VWidth: 0
GlyphClass: 2
Flags: W
LayerCount: 2
Back
Fore
SplineSet
235 -1 m 257
 235 37 l 257
 266.938 37 304 56 318 94 c 258
 380.811 257.5 l 257
 318 421 l 258
 304 459 266.938 478 235 478 c 257
 235 516 l 257
 285.404 516 336.354 482.862 354 436 c 258
 401.692 311.855 l 257
 449 435 l 258
 466.646 481.862 517.596 515 568 515 c 257
 568 477 l 257
 536.062 477 499 458 485 420 c 258
 422.573 257.5 l 257
 485 95 l 258
 499 57 536.063 38 568 38 c 257
 568 0 l 257
 517.596 0 466.646 33.1377 449 80 c 258
 401.692 203.145 l 257
 354 79 l 258
 336.354 32.1377 285.404 -1 235 -1 c 257
194 -1 m 257
 82 -1 30 93 30 141 c 258
 30 376 l 258
 30 425 84 516 194 516 c 257
 194 478 l 257
 114 478 70 410 70 363 c 258
 70 154 l 258
 70 111 121 37 194 37 c 257
 194 -1 l 257
609 -2 m 257
 609 36 l 257
 682 36 733 110 733 153 c 258
 733 362 l 258
 733 409 689 477 609 477 c 257
 609 515 l 257
 719 515 773 424 773 375 c 258
 773 140 l 258
 773 92 721 -2 609 -2 c 257
EndSplineSet
EndChar

StartChar: integral
Encoding: 339 8747 189
GlifName: integral
Width: 285
VWidth: 0
GlyphClass: 2
Flags: W
LayerCount: 2
Back
Fore
SplineSet
1 -144 m 257
 48 -157 127 -148 127 -3 c 257
 127 625 l 258
 127 769 222 815 282 795 c 257
 282 768 l 257
 232 786 159 757 159 625 c 258
 159 -3 l 258
 159 -147 68 -191 1 -171 c 257
 1 -144 l 257
EndSplineSet
EndChar

StartChar: j
Encoding: 106 106 191
GlifName: j
Width: 201
VWidth: 0
GlyphClass: 2
Flags: W
LayerCount: 2
Back
Fore
SplineSet
85 516 m 257
 125 516 l 257
 125 -35 l 258
 125 -82 77 -181 -25 -181 c 258
 -42 -181 l 257
 -33 -143 l 257
 -22 -143 l 257
 33 -140 85 -85 85 -35 c 258
 85 516 l 257
79 583 m 256
 79 598 92 610 107 610 c 256
 122 610 134 598 134 583 c 256
 134 568 122 556 107 556 c 256
 92 556 79 568 79 583 c 256
EndSplineSet
EndChar

StartChar: k
Encoding: 107 107 192
GlifName: k
Width: 460
VWidth: 0
GlyphClass: 2
Flags: W
LayerCount: 2
Back
Fore
SplineSet
42 0 m 257
 42 698 l 257
 82 698 l 257
 82 0 l 257
 42 0 l 257
104 257 m 257
 380 514 l 257
 440 514 l 257
 164 257 l 257
 440 0 l 257
 380 0 l 257
 104 257 l 257
EndSplineSet
EndChar

StartChar: l
Encoding: 108 108 193
GlifName: l
Width: 124
VWidth: 0
GlyphClass: 2
Flags: W
LayerCount: 2
Back
Fore
SplineSet
42 0 m 257
 42 698 l 257
 82 698 l 257
 82 0 l 257
 42 0 l 257
EndSplineSet
EndChar

StartChar: less
Encoding: 60 60 196
GlifName: less
Width: 414
VWidth: 0
GlyphClass: 2
Flags: W
LayerCount: 2
Back
Fore
SplineSet
30 276 m 257
 30 308 l 257
 384 500 l 257
 384 460 l 257
 76 292 l 257
 384 119 l 257
 384 79 l 257
 30 276 l 257
EndSplineSet
EndChar

StartChar: lessequal
Encoding: 343 8804 197
GlifName: lessequal
Width: 414
VWidth: 0
GlyphClass: 2
Flags: W
LayerCount: 2
Back
Fore
SplineSet
370 145 m 257
 16 342 l 257
 16 374 l 257
 370 566 l 257
 370 526 l 257
 62 358 l 257
 370 185 l 257
 370 145 l 257
27 53 m 257
 27 91 l 257
 384 91 l 257
 384 53 l 257
 27 53 l 257
EndSplineSet
EndChar

StartChar: logicalnot
Encoding: 344 172 198
GlifName: logicalnot
Width: 501
VWidth: 0
GlyphClass: 2
Flags: W
LayerCount: 2
Back
Fore
SplineSet
40 368 m 257
 40 406 l 257
 451 406 l 257
 451 208 l 257
 411 208 l 257
 411 368 l 257
 40 368 l 257
EndSplineSet
EndChar

StartChar: lozenge
Encoding: 345 9674 199
GlifName: lozenge
Width: 427
VWidth: 0
GlyphClass: 2
Flags: W
LayerCount: 2
Back
Fore
SplineSet
-3 352 m 257
 194 706 l 257
 226 706 l 257
 418 352 l 257
 221 -2 l 257
 189 -2 l 257
 -3 352 l 257
37 352 m 257
 205 44 l 257
 378 352 l 257
 210 660 l 257
 37 352 l 257
EndSplineSet
EndChar

StartChar: lslash
Encoding: 346 322 200
GlifName: lslash
Width: 424
VWidth: 0
GlyphClass: 2
Flags: W
LayerCount: 2
Back
Fore
SplineSet
107 317 m 257
 293 460 l 257
 318 428 l 257
 132 285 l 257
 107 317 l 257
191 0 m 257
 191 698 l 257
 231 698 l 257
 231 0 l 257
 191 0 l 257
EndSplineSet
EndChar

StartChar: m
Encoding: 109 109 201
GlifName: m
Width: 700
VWidth: 0
GlyphClass: 2
Flags: W
LayerCount: 2
Back
Fore
SplineSet
38 0 m 257
 38 377 l 258
 38 429 68 519 181 519 c 257
 181 481 l 257
 117 481 78 431 78 372 c 258
 78 0 l 257
 38 0 l 257
225 481 m 257
 225 519 l 257
 297 519 326 490 350 450 c 257
 374 490 402 519 474 519 c 257
 474 481 l 257
 410 481 370 431 370 372 c 257
 370 0 l 257
 330 0 l 257
 330 372 l 258
 330 431 289 481 225 481 c 257
518 481 m 257
 518 519 l 257
 628 519 662 426 662 377 c 258
 662 0 l 257
 622 0 l 257
 622 372 l 258
 622 433 581 481 518 481 c 257
EndSplineSet
EndChar

StartChar: mnyk
Encoding: 349 -1 204
GlifName: mnyk
Width: 952
VWidth: 0
GlyphClass: 2
Flags: W
LayerCount: 2
Back
Fore
SplineSet
692.6 606 m 256
 692.6 669.2 743.8 720.4 807 720.4 c 256
 870.2 720.4 921.4 669.2 921.4 606 c 256
 921.4 542.8 870.2 491.6 807 491.6 c 256
 743.8 491.6 692.6 542.8 692.6 606 c 256
30.4004 401 m 256
 30.4004 574.8 171.2 715.6 345 715.6 c 256
 518.8 715.6 659.6 574.8 659.6 401 c 256
 659.6 227.2 518.8 86.4004 345 86.4004 c 256
 171.2 86.4004 30.4004 227.2 30.4004 401 c 256
EndSplineSet
EndChar

StartChar: multiply
Encoding: 215 215 205
GlifName: multiply
Width: 493
VWidth: 0
GlyphClass: 2
Flags: W
LayerCount: 2
Back
Fore
SplineSet
141 199 m 257
 112 229 l 257
 300 417 l 257
 113 605 l 257
 142 635 l 257
 330 447 l 257
 520 636 l 257
 549 606 l 257
 360 417 l 257
 549 227 l 257
 520 197 l 257
 330 388 l 257
 141 199 l 257
EndSplineSet
EndChar

StartChar: n
Encoding: 110 110 206
GlifName: n
Width: 450
VWidth: 0
GlyphClass: 2
Flags: W
LayerCount: 2
Back
Fore
SplineSet
38 0 m 257
 38 377 l 258
 38 428 94 519 204 519 c 257
 204 479 l 257
 141 479 78 426 78 372 c 258
 78 0 l 257
 38 0 l 257
246 479 m 257
 246 519 l 257
 356 519 412 425 412 377 c 258
 412 0 l 257
 372 0 l 257
 372 372 l 258
 372 405 328 479 246 479 c 257
EndSplineSet
EndChar

StartChar: nine
Encoding: 57 57 209
GlifName: nine
Width: 512
VWidth: 0
GlyphClass: 2
Flags: W
LayerCount: 2
Back
Fore
SplineSet
267 2 m 257
 267 41 l 257
 330 41 437 103 437 366 c 257
 423 348 397 274 267 274 c 257
 267 314 l 257
 368 314 421 380 421 490 c 256
 421 551 375 659 267 660 c 257
 267 700 l 257
 442 700 477 529 477 341 c 256
 477 233 444 0 267 2 c 257
223 274 m 257
 94 274 26 359 26 485 c 256
 26 610 122 699 223 700 c 257
 223 660 l 257
 111 658 64 550 64 485 c 256
 64 380 124 314 223 314 c 257
 223 274 l 257
43 115 m 257
 76 136 l 257
 102 83 160 41 223 41 c 257
 223 1 l 257
 145 1 76 51 43 115 c 257
EndSplineSet
EndChar

StartChar: numbersign
Encoding: 35 35 212
GlifName: numbersign
Width: 890
VWidth: 0
GlyphClass: 2
Flags: W
LayerCount: 2
Back
Fore
SplineSet
110 218 m 257
 117 256 l 257
 296 256 l 257
 329 446 l 257
 143 446 l 257
 149 484 l 257
 335 484 l 257
 370 682 l 257
 410 682 l 257
 375 484 l 257
 562 484 l 257
 596 682 l 257
 636 682 l 257
 602 484 l 257
 780 484 l 257
 774 445 l 257
 595 446 l 257
 562 255 l 257
 745 255 l 257
 740 217 l 257
 555 218 l 257
 521 22 l 257
 481 22 l 257
 515 218 l 257
 329 218 l 257
 294 22 l 257
 254 22 l 257
 289 218 l 257
 110 218 l 257
336 256 m 257
 522 255 l 257
 555 446 l 257
 369 446 l 257
 336 256 l 257
EndSplineSet
EndChar

StartChar: o
Encoding: 111 111 213
GlifName: o
Width: 440
VWidth: 0
GlyphClass: 2
Flags: W
LayerCount: 2
Back
Fore
SplineSet
38 141 m 258
 38 376 l 258
 38 425 92 516 202 516 c 257
 202 478 l 257
 122 478 78 410 78 363 c 258
 78 154 l 258
 78 111 129 37 202 37 c 257
 202 -1 l 257
 90 -1 38 93 38 141 c 258
243 -1 m 257
 243 37 l 257
 318 37 362 108 362 152 c 258
 362 363 l 258
 362 408 318 478 243 478 c 257
 243 516 l 257
 351 516 402 425 402 376 c 258
 402 141 l 258
 402 92 351 -1 243 -1 c 257
EndSplineSet
EndChar

StartChar: oe
Encoding: 353 339 217
GlifName: oe
Width: 757
VWidth: 0
GlyphClass: 2
Flags: W
LayerCount: 2
Back
Fore
SplineSet
375 79 m 257
 351 38 305 -1 235 -1 c 257
 235 37 l 257
 310 37 354 108 354 152 c 258
 354 363 l 258
 354 408 310 478 235 478 c 257
 235 516 l 257
 305 516 351 477 376 438 c 257
 401 478 449 516 518 516 c 257
 518 478 l 257
 446 478 395 413.762 395 359 c 256
 395 334.333 395 309.667 395 285 c 257
 686 285 l 257
 686 369 l 258
 686 428 624 480 563 480 c 257
 563 516 l 257
 639 516 726 453 726 378 c 258
 726 247 l 257
 395 247 l 257
 395 141 l 258
 395 81.8652 470.973 36 543 36 c 256
 613.966 36 673.423 74.9668 690 133 c 257
 727 120 l 257
 704.754 45.0645 644.074 0 541 0 c 256
 465.549 0 401.186 34.1113 375 79 c 257
30 141 m 258
 30 376 l 258
 30 425 84 516 194 516 c 257
 194 478 l 257
 114 478 70 410 70 363 c 258
 70 154 l 258
 70 111 121 37 194 37 c 257
 194 -1 l 257
 82 -1 30 93 30 141 c 258
EndSplineSet
EndChar

StartChar: ogonek
Encoding: 354 731 218
GlifName: ogonek
Width: 219
VWidth: 0
GlyphClass: 2
Flags: W
LayerCount: 2
Back
Fore
SplineSet
106 -172 m 257
 5 -172 -35 -96 -35 -40 c 257
 5 -40 l 257
 5 -95 47 -134 106 -134 c 257
 106 -172 l 257
EndSplineSet
EndChar

StartChar: one
Encoding: 49 49 222
GlifName: one
Width: 160
VWidth: 0
GlyphClass: 2
Flags: W
LayerCount: 2
Back
Fore
SplineSet
40 624 m 257
 40 667 l 257
 80 700 l 257
 120 700 l 257
 120 0 l 257
 80 0 l 257
 80 624 l 257
 40 624 l 257
EndSplineSet
EndChar

StartChar: onehalf
Encoding: 189 189 223
GlifName: onehalf
Width: 554
VWidth: 0
GlyphClass: 2
Flags: W
LayerCount: 2
Back
Fore
SplineSet
308.708 0 m 257
 308.708 30 l 257
 510.708 30 l 257
 510.708 0 l 257
 308.708 0 l 257
0 0 m 257
 432 700 l 257
 468 700 l 257
 36 0 l 257
 0 0 l 257
63 662 m 257
 63 683.5 l 257
 83 700 l 257
 113 700 l 257
 113 350 l 257
 83 350 l 257
 83 662 l 257
 63 662 l 257
299.208 261 m 257
 303.708 303 334.208 346.5 387.208 351 c 257
 387.208 321 l 256
 387.208 321 336 321 328 254 c 257
 299.208 261 l 257
308.708 51 m 257
 308.708 139.5 412.708 165 431.208 174 c 256
 459.208 187.5 483.708 205 483.708 248 c 256
 483.708 290.5 465.708 321 409.708 321 c 257
 409.708 351 l 257
 488.708 351 513.708 300.51 513.708 248 c 256
 513.708 198 490.208 173 456.208 155.5 c 256
 419.208 136.5 338.708 120.5 338.708 51 c 257
 308.708 51 l 257
EndSplineSet
EndChar

StartChar: onequarter
Encoding: 357 188 224
GlifName: onequarter
Width: 498
VWidth: 0
GlyphClass: 2
Flags: W
LayerCount: 2
Back
Fore
SplineSet
399.25 -0.25 m 257
 399.25 350.25 l 257
 429.75 350.25 l 257
 429.75 91.25 l 257
 456.75 91.25 l 257
 456.75 61.25 l 257
 429.75 61.25 l 257
 429.75 -0.25 l 257
 399.25 -0.25 l 257
63 662 m 257
 63 683.5 l 257
 83 700 l 257
 113 700 l 257
 113 350 l 257
 83 350 l 257
 83 662 l 257
 63 662 l 257
231.25 61.25 m 257
 231.25 91.25 l 257
 376.75 338.25 l 257
 376.75 279.75 l 257
 266.75 91.25 l 257
 376.75 91.25 l 257
 376.75 61.25 l 257
 231.25 61.25 l 257
0 0 m 257
 432 700 l 257
 468 700 l 257
 36 0 l 257
 0 0 l 257
EndSplineSet
EndChar

StartChar: onesuperior
Encoding: 358 185 225
GlifName: uni00B_9
Width: 102
VWidth: 0
GlyphClass: 2
Flags: W
LayerCount: 2
Back
Fore
SplineSet
8.90039 665.025 m 257
 8.90039 684.375 l 257
 26.9004 699.225 l 257
 52.9004 699.225 l 257
 52.9004 386.225 l 257
 26.9004 386.225 l 257
 26.9004 665.025 l 257
 8.90039 665.025 l 257
EndSplineSet
EndChar

StartChar: ordfeminine
Encoding: 359 170 226
GlifName: ordfeminine
Width: 230
VWidth: 0
GlyphClass: 2
Flags: W
LayerCount: 2
Back
Fore
SplineSet
20 393 m 257
 20 410 l 257
 208 410 l 257
 208 393 l 257
 20 393 l 257
EndSplineSet
Refer: 93 97 N 0.5 0 0 0.5 3.5 446 2
EndChar

StartChar: ordmasculine
Encoding: 360 186 227
GlifName: ordmasculine
Width: 230
VWidth: 0
GlyphClass: 2
Flags: W
LayerCount: 2
Back
Fore
SplineSet
26 413 m 257
 26 432 l 257
 204 432 l 257
 204 413 l 257
 26 413 l 257
EndSplineSet
Refer: 213 111 N 0.443625 0 0 0.443625 21 471 2
EndChar

StartChar: oslash
Encoding: 361 248 228
GlifName: oslash
Width: 420
VWidth: 0
GlyphClass: 2
Flags: W
LayerCount: 2
Back
Fore
SplineSet
14 68 m 257
 69 118 l 257
 67 126 66 134 66 141 c 258
 66 376 l 258
 66 425 120 516 230 516 c 257
 230 478 l 257
 150 478 106 410 106 363 c 258
 106 152 l 257
 380 404 l 257
 363 441 325 478 271 478 c 257
 271 516 l 257
 343 516 390 476 413 434 c 257
 459 475 l 257
 486 446 l 257
 428 393 l 257
 429 387 430 381 430 376 c 258
 430 141 l 258
 430 92 379 -1 271 -1 c 257
 271 37 l 257
 346 37 390 108 390 152 c 258
 390 358 l 257
 119 110 l 257
 139 73 179 37 230 37 c 257
 230 -1 l 257
 158 -1 110 38 86 79 c 257
 41 38 l 257
 14 68 l 257
EndSplineSet
EndChar

StartChar: p
Encoding: 112 112 230
GlifName: p
Width: 444
VWidth: 0
GlyphClass: 2
Flags: W
LayerCount: 2
Back
Fore
SplineSet
134 0 m 257
 134 38 l 257
 245 38 l 258
 323 38 368 92 368 143 c 258
 368 372 l 257
 368 413 321 478 235 478 c 258
 127 478 l 257
 127 516 l 257
 235 516 l 258
 353 516 408 427 408 375 c 258
 408 139 l 257
 408 86 356 0 243 0 c 258
 134 0 l 257
42 -182 m 257
 42 516 l 257
 82 516 l 257
 82 -182 l 257
 42 -182 l 257
EndSplineSet
EndChar

StartChar: paragraph
Encoding: 363 182 231
GlifName: paragraph
Width: 363
VWidth: 0
GlyphClass: 2
Flags: W
LayerCount: 2
Back
Fore
SplineSet
35 517 m 256
 35 617 102 705 204 705 c 256
 232 705 206 705 234 705 c 257
 234 -5 l 257
 204 -5 l 257
 204 329 l 257
 100 329 35 403 35 517 c 256
279 -5 m 257
 279 705 l 257
 309 705 l 257
 309 -5 l 257
 279 -5 l 257
EndSplineSet
EndChar

StartChar: parenleft
Encoding: 40 40 232
GlifName: parenleft
Width: 192
VWidth: 0
GlyphClass: 2
Flags: W
LayerCount: 2
Back
Fore
SplineSet
40 189 m 257
 40 510 l 257
 40 652 111 676 171 705 c 257
 171 682 l 257
 132 659 80 642 80 522 c 258
 81 241 l 258
 81 239 81 190 81 188 c 256
 81 78 137 40 172 18 c 257
 172 -5 l 257
 63 53 40 99 40 189 c 257
EndSplineSet
EndChar

StartChar: parenright
Encoding: 41 41 233
GlifName: parenright
Width: 200
VWidth: 0
GlyphClass: 2
Flags: W
LayerCount: 2
Back
Fore
SplineSet
39.998 -9 m 257
 39.998 14 l 257
 78.3156 38.0853 139.998 68.1795 139.998 208 c 258
 139.998 521 l 258
 139.998 632 78.998 663 39.998 686 c 257
 39.998 709 l 257
 147.998 669 180 601 180 510 c 258
 180 196 l 258
 179.936 167.608 176.446 47.5281 39.998 -9 c 257
EndSplineSet
EndChar

StartChar: partialdiff
Encoding: 364 8706 234
GlifName: partialdiff
Width: 420
VWidth: 0
GlyphClass: 2
Flags: W
LayerCount: 2
Back
Fore
SplineSet
28 141 m 258
 28 376 l 258
 28 425 82 516 192 516 c 257
 192 478 l 257
 112 478 68 410 68 363 c 258
 68 154 l 258
 68 111 119 37 192 37 c 257
 192 -1 l 257
 80 -1 28 93 28 141 c 258
70 686 m 257
 70 714 l 257
 290 714 392 648 392 450 c 258
 392 141 l 258
 392 92 341 -1 233 -1 c 257
 233 37 l 257
 308 37 352 108 352 152 c 258
 351 373 l 258
 351 418 303 478 233 478 c 257
 233 516 l 257
 283 516 321 497 347 471 c 257
 347 650 203 686 70 686 c 257
EndSplineSet
EndChar

StartChar: percent
Encoding: 37 37 235
GlifName: P_ercent_sign
Width: 267
VWidth: 0
GlyphClass: 2
Flags: W
LayerCount: 2
Back
Fore
SplineSet
71 576 m 256
 71 590 83 602 97 602 c 256
 111 602 123 590 123 576 c 256
 123 562 111 550 97 550 c 256
 83 550 71 562 71 576 c 256
26 -23 m 257
 201 716 l 257
 241 716 l 257
 67 -23 l 257
 26 -23 l 257
142 115 m 256
 142 129 154 141 168 141 c 256
 182 141 194 129 194 115 c 256
 194 101 182 89 168 89 c 256
 154 89 142 101 142 115 c 256
EndSplineSet
EndChar

StartChar: period
Encoding: 46 46 236
GlifName: period
Width: 138
VWidth: 0
GlyphClass: 2
Flags: W
LayerCount: 2
Back
Fore
SplineSet
30 35 m 256
 30 56 48 74 69 74 c 256
 90 74 108 56 108 35 c 256
 108 14 90 -4 69 -4 c 256
 48 -4 30 14 30 35 c 256
EndSplineSet
EndChar

StartChar: perthousand
Encoding: 365 8240 238
GlifName: perthousand
Width: 897
VWidth: 0
GlyphClass: 2
Flags: W
LayerCount: 2
Back
Fore
SplineSet
120 352 m 257
 87 353.5 19 378 19 528.5 c 256
 19 660 76 698.5 120.5 701 c 257
 120.5 672 l 257
 95 672 50.5 640.5 49.5 551 c 256
 49.3491 537.492 49.5 532 49.5 521.5 c 256
 49.5 400.5 99.5 381.5 120 381 c 257
 120 352 l 257
151 352 m 257
 151 381 l 257
 171.5 381.5 221.5 400.5 221.5 521.5 c 256
 221.5 532 221.651 537.491 221.5 551 c 256
 220.5 640.5 176 672 150.5 672 c 257
 150.5 701 l 257
 195 698.5 252 660 252 528.5 c 256
 252 378 184 353.5 151 352 c 257
487 0 m 257
 454 1.5 386 26 386 176.5 c 256
 386 308 443 346.5 487.5 349 c 257
 487.5 320 l 257
 462 320 417.5 288.5 416.5 199 c 256
 416.349 185.491 416.5 180 416.5 169.5 c 256
 416.5 48.5 466.5 29.5 487 29 c 257
 487 0 l 257
518 0 m 257
 518 29 l 257
 538.5 29.5 588.5 48.5 588.5 169.5 c 256
 588.5 180 588.651 185.491 588.5 199 c 256
 587.5 288.5 543 320 517.5 320 c 257
 517.5 349 l 257
 562 346.5 619 308 619 176.5 c 256
 619 26 551 1.5 518 0 c 257
746 0 m 257
 713 1.5 645 26 645 176.5 c 256
 645 308 702 346.5 746.5 349 c 257
 746.5 320 l 257
 721 320 676.5 288.5 675.5 199 c 256
 675.349 185.491 675.5 180 675.5 169.5 c 256
 675.5 48.5 725.5 29.5 746 29 c 257
 746 0 l 257
777 0 m 257
 777 29 l 257
 797.5 29.5 847.5 48.5 847.5 169.5 c 256
 847.5 180 847.651 185.491 847.5 199 c 256
 846.5 288.5 802 320 776.5 320 c 257
 776.5 349 l 257
 821 346.5 878 308 878 176.5 c 256
 878 26 810 1.5 777 0 c 257
89 0 m 257
 521 700 l 257
 557 700 l 257
 125 0 l 257
 89 0 l 257
EndSplineSet
EndChar

StartChar: pi
Encoding: 366 960 239
GlifName: pi
Width: 421
VWidth: 0
GlyphClass: 2
Flags: W
LayerCount: 2
Back
Fore
SplineSet
-28 478 m 257
 -28 516 l 257
 452 516 l 257
 452 478 l 257
 358 478 l 257
 358 142 l 258
 358 37 401 34 438 34 c 257
 438 -4 l 257
 339 -4 318 64 318 133 c 258
 318 478 l 257
 108 478 l 257
 108 -4 l 257
 68 -4 l 257
 68 478 l 257
 -28 478 l 257
EndSplineSet
EndChar

StartChar: plus
Encoding: 43 43 240
GlifName: plus
Width: 405
VWidth: 0
GlyphClass: 2
Flags: W
LayerCount: 2
Back
Fore
SplineSet
15 275 m 257
 15 313 l 257
 181 313 l 257
 181 498 l 257
 221 498 l 257
 221 313 l 257
 390 313 l 257
 390 275 l 257
 221 275 l 257
 221 87 l 257
 181 87 l 257
 181 275 l 257
 15 275 l 257
EndSplineSet
EndChar

StartChar: plusminus
Encoding: 367 177 241
GlifName: plusminus
Width: 435
VWidth: 0
GlyphClass: 2
Flags: W
LayerCount: 2
Back
Fore
SplineSet
30 129 m 257
 30 167 l 257
 405 167 l 257
 405 129 l 257
 30 129 l 257
EndSplineSet
Refer: 240 43 N 1 0 0 1 15 161 2
EndChar

StartChar: product
Encoding: 368 8719 242
GlifName: product
Width: 458
VWidth: 0
GlyphClass: 2
Flags: W
LayerCount: 2
Back
Fore
SplineSet
2 659 m 257
 2 694 l 257
 456 694 l 257
 456 659 l 257
 394 659 l 257
 394 -140 l 257
 357 -140 l 257
 357 659 l 257
 100 659 l 257
 100 -140 l 257
 63 -140 l 257
 63 659 l 257
 2 659 l 257
EndSplineSet
EndChar

StartChar: q
Encoding: 113 113 243
GlifName: q
Width: 438
VWidth: 0
GlyphClass: 2
Flags: W
LayerCount: 2
Back
Fore
SplineSet
203 0 m 258
 90 0 38 86 38 139 c 257
 38 375 l 258
 38 427 85 516 203 516 c 258
 311 516 l 257
 311 478 l 257
 203 478 l 258
 117 478 78 413 78 372 c 257
 78 143 l 258
 78 92 123 38 201 38 c 258
 304 38 l 257
 304 0 l 257
 203 0 l 258
356 -182 m 257
 356 516 l 257
 396 516 l 257
 396 -182 l 257
 356 -182 l 257
EndSplineSet
EndChar

StartChar: question
Encoding: 63 63 244
GlifName: question
Width: 460
VWidth: 0
GlyphClass: 2
Flags: W
LayerCount: 2
Back
Fore
SplineSet
30 611 m 257
 60 649 110 703 218 703 c 256
 346 703 426 620 430 491 c 257
 430 293 215 276 215 276 c 257
 215 71 l 257
 177 71 l 257
 177 316 l 257
 294 318 392 370 392 491 c 256
 392 587 327 663 218 663 c 256
 129 663 78 611 57 583 c 257
 30 611 l 257
171 4 m 256
 171 18 183 30 197 30 c 256
 211 30 223 18 223 4 c 256
 223 -10 211 -22 197 -22 c 256
 183 -22 171 -10 171 4 c 256
EndSplineSet
EndChar

StartChar: quotedbl
Encoding: 34 34 246
GlifName: quotedbl
Width: 217
VWidth: 0
GlyphClass: 2
Flags: W
LayerCount: 2
Back
Fore
SplineSet
42 465 m 257
 42 736 l 257
 82 736 l 257
 82 465 l 257
 42 465 l 257
135 465 m 257
 135 736 l 257
 175 736 l 257
 175 465 l 257
 135 465 l 257
EndSplineSet
EndChar

StartChar: quotedbl.alt
Encoding: 370 -1 247
GlifName: quotedbl.alt
Width: 359
VWidth: 0
GlyphClass: 2
Flags: W
LayerCount: 2
Back
Fore
SplineSet
26 476 m 257
 26 700 l 257
 153 700 l 257
 153 476 l 257
 26 476 l 257
206 476 m 257
 206 700 l 257
 333 700 l 257
 333 476 l 257
 206 476 l 257
EndSplineSet
EndChar

StartChar: quotesingle
Encoding: 39 39 254
GlifName: quotesingle
Width: 125
VWidth: 0
GlyphClass: 2
Flags: W
LayerCount: 2
Back
Fore
SplineSet
43 465 m 257
 43 736 l 257
 83 736 l 257
 83 465 l 257
 43 465 l 257
EndSplineSet
EndChar

StartChar: r
Encoding: 114 114 255
GlifName: r
Width: 223
VWidth: 0
GlyphClass: 2
Flags: W
LayerCount: 2
Back
Fore
SplineSet
42 0 m 257
 42 516 l 257
 82 516 l 257
 82 431 l 257
 95 464 141 515 212 515 c 258
 213 515 l 257
 203 478 l 257
 143 478 82 390 82 308 c 258
 82 0 l 257
 42 0 l 257
EndSplineSet
EndChar

StartChar: radical
Encoding: 378 8730 257
GlifName: radical
Width: 560
VWidth: 0
GlyphClass: 2
Flags: W
LayerCount: 2
Back
Fore
SplineSet
6 513 m 257
 160 568 l 257
 366 58 l 257
 509 819 l 257
 534 819 l 257
 383 -2 l 257
 353 -2 l 257
 141 528 l 257
 15 483 l 257
 6 513 l 257
EndSplineSet
EndChar

StartChar: registered
Encoding: 380 174 259
GlifName: registered
Width: 384
VWidth: 0
GlyphClass: 2
Flags: W
LayerCount: 2
Back
Fore
SplineSet
166 518 m 257
 166 537 l 257
 185 537 l 258
 217 537 231 551 231 570 c 256
 231 599 211 608 174 608 c 258
 166 608 l 257
 166 627 l 257
 199 627 251 627 251 570 c 256
 251 550 243 535 230 528 c 257
 242 523 249.91 505.076 251 492 c 258
 256 432 l 257
 236 432 l 257
 232 481 l 258
 229.142 516.012 207 518 166 518 c 257
184 369.196 m 257
 99.7366 373.345 33 442.683 33 528 c 256
 33 613.317 99.7366 682.655 184 686.804 c 257
 184 662.919 l 257
 112.944 658.797 56.8496 600.114 56.8496 528 c 256
 56.8496 455.886 112.944 397.203 184 393.081 c 257
 184 369.196 l 257
200 369.196 m 257
 200 393.081 l 257
 271.056 397.203 327.15 455.886 327.15 528 c 256
 327.15 600.114 271.056 658.797 200 662.919 c 257
 200 686.804 l 257
 284.263 682.655 351 613.317 351 528 c 256
 351 442.683 284.263 373.345 200 369.196 c 257
133 432 m 257
 133 627 l 257
 154 627 l 257
 154 432 l 257
 133 432 l 257
EndSplineSet
EndChar

StartChar: ring
Encoding: 381 730 260
GlifName: ring
Width: 244
VWidth: 0
GlyphClass: 2
Flags: W
LayerCount: 2
Back
Fore
SplineSet
55 526 m 256
 55 563 85 593 122 593 c 256
 159 593 189 563 189 526 c 256
 189 489 159 459 122 459 c 256
 85 459 55 489 55 526 c 256
90 526 m 256
 90 508 104 494 122 494 c 256
 140 494 154 508 154 526 c 256
 154 544 140 558 122 558 c 256
 104 558 90 544 90 526 c 256
EndSplineSet
EndChar

StartChar: s
Encoding: 115 115 261
GlifName: s
Width: 415
VWidth: 0
GlyphClass: 2
Flags: W
LayerCount: 2
Back
Fore
SplineSet
20 136 m 257
 59 143 l 257
 59 79 130 33 182 33 c 257
 182 -5 l 257
 85 -5 20 71 20 136 c 257
24 365 m 256
 24 472 117 517 180 517 c 257
 180 479 l 257
 134 479 64 435 64 365 c 256
 64 305 144 301 283 266 c 256
 315 258 395 234 395 153 c 256
 395 57 318 -5 223 -5 c 257
 223 32 l 257
 277 32 355 73 355 153 c 256
 355 223 236 235 123 262 c 256
 92 269 24 289 24 365 c 256
222 478 m 257
 222 517 l 257
 319 517 386 441 386 374 c 257
 347 368 l 257
 347 442 263 478 222 478 c 257
EndSplineSet
EndChar

StartChar: section
Encoding: 167 167 264
GlifName: section
Width: 602
VWidth: 0
GlyphClass: 2
Flags: W
LayerCount: 2
Back
Fore
SplineSet
54 356 m 256
 54 427 88 475 129 504 c 257
 120 523 115 546 115 576 c 256
 115 720 235 760 306 760 c 258
 404 760 l 257
 404 722 l 257
 335 722 l 258
 211 721 155 663 155 578 c 256
 155 510 213 478 278 459 c 257
 278 412 l 257
 262 415 248 418 238 422 c 256
 203 435 174 449 153 470 c 257
 122 446 94 408 94 350 c 256
 94 261 193 238 278 223 c 257
 278 183 l 257
 237 190 199 194 177 202 c 256
 103 230 54 263 54 356 c 256
197 -98 m 257
 262 -98 l 258
 373 -99 447 -47 447 51 c 256
 447 125 388 156 323 173 c 257
 323 215 l 257
 336 213 349 210 359 207 c 256
 396 197 431 182 455 153 c 257
 485 182 508 222 508 271 c 256
 508 369 406 392 323 405 c 257
 323 447 l 257
 360 439 395 434 420 427 c 256
 489 408 548 373 548 265 c 256
 548 208 521 152 477 113 c 257
 484 94 487 72 487 45 c 256
 487 -44 420 -137 292 -137 c 258
 197 -137 l 257
 197 -98 l 257
EndSplineSet
EndChar

StartChar: semicolon
Encoding: 59 59 265
GlifName: semicolon
Width: 199
VWidth: 0
GlyphClass: 2
Flags: W
LayerCount: 2
Back
Fore
SplineSet
50 -23 m 257
 87 129 l 257
 126 129 l 257
 89 -23 l 257
 50 -23 l 257
97 311 m 256
 97 325 109 337 123 337 c 256
 137 337 149 325 149 311 c 256
 149 297 137 285 123 285 c 256
 109 285 97 297 97 311 c 256
EndSplineSet
EndChar

StartChar: seven
Encoding: 55 55 266
GlifName: seven
Width: 435
VWidth: 0
GlyphClass: 2
Flags: W
LayerCount: 2
Back
Fore
SplineSet
429 661 m 257
 30 660 l 257
 30 700 l 257
 429 700 l 257
 429 661 l 257
210 0 m 257
 227 158 272 408 381 616 c 257
 424 616 l 257
 311 406 269 154 253 0 c 257
 210 0 l 257
EndSplineSet
EndChar

StartChar: six
Encoding: 54 54 267
GlifName: six
Width: 509
VWidth: 0
GlyphClass: 2
Flags: W
LayerCount: 2
Back
Fore
SplineSet
232 -1 m 257
 58 6 25 172.997 25 349 c 256
 25 466 55 679 232 697 c 257
 232 659 l 257
 81 635 65 448 65 324 c 257
 101 399 171 425 232 425 c 257
 232 387 l 257
 132 387 79 304 79 211 c 256
 79 164 111 37 232 37 c 257
 232 -1 l 257
287 -1 m 257
 287 37 l 257
 385 37 440 136 440 211 c 256
 440 335 358 389 287 389 c 257
 287 425 l 257
 411 425 479 330 479 212 c 256
 479 87 388 0 287 -1 c 257
419 572 m 257
 402 607 363 660 286 660 c 257
 286 698 l 257
 364 698 425 651 452 594 c 257
 419 572 l 257
EndSplineSet
EndChar

StartChar: slash
Encoding: 47 47 268
GlifName: slash
Width: 315
VWidth: 0
GlyphClass: 2
Flags: W
LayerCount: 2
Back
Fore
SplineSet
50 -23 m 257
 225 716 l 257
 265 716 l 257
 91 -23 l 257
 50 -23 l 257
EndSplineSet
EndChar

StartChar: sterling
Encoding: 163 163 270
GlifName: sterling
Width: 372
VWidth: 0
GlyphClass: 2
Flags: W
LayerCount: 2
Back
Fore
SplineSet
20 322 m 257
 20 360 l 257
 82 360 l 257
 82 553 l 258
 82 629 128 704 221 704 c 258
 223 704 l 258
 246 704 264 700 281 693 c 257
 315 680 337 655 350 629 c 257
 315 612 l 257
 297 639 270 664 227 664 c 256
 168 664 122 622 122 556 c 258
 122 362 l 257
 268 362 l 257
 268 324 l 257
 122 324 l 257
 122 38 l 257
 352 38 l 257
 352 0 l 257
 82 0 l 257
 82 322 l 257
 20 322 l 257
EndSplineSet
EndChar

StartChar: summation
Encoding: 384 8721 271
GlifName: summation
Width: 558
VWidth: 0
GlyphClass: 2
Flags: W
LayerCount: 2
Back
Fore
SplineSet
138 663 m 257
 112 694 l 257
 112 703 l 257
 528 703 l 257
 528 663 l 257
 138 663 l 257
30 -140 m 257
 30 -100 l 257
 320 288 l 257
 30 663 l 257
 30 703 l 257
 50 703 l 257
 371 287 l 257
 80.4482 -101 l 257
 528 -100 l 257
 528 -140 l 257
 30 -140 l 257
EndSplineSet
EndChar

StartChar: t
Encoding: 116 116 272
GlifName: t
Width: 247
VWidth: 0
GlyphClass: 2
Flags: W
LayerCount: 2
Back
Fore
SplineSet
15 438 m 257
 15 477 l 257
 78 477 l 257
 78 700 l 257
 118 700 l 257
 118 477 l 257
 181 477 l 257
 181 438 l 257
 118 438 l 257
 118 159 l 258
 118 83 143 38 237 38 c 258
 238 38 l 257
 247 0 l 257
 232 0 l 258
 110 1 78 66 78 168 c 258
 78 438 l 257
 15 438 l 257
EndSplineSet
EndChar

StartChar: thorn
Encoding: 386 254 274
GlifName: thorn
Width: 422
VWidth: 0
GlyphClass: 2
Flags: W
LayerCount: 2
Back
Fore
SplineSet
30 -182 m 257
 30 700 l 257
 70 700 l 257
 70 -182 l 257
 30 -182 l 257
115 478 m 257
 115 516 l 257
 228 516 l 258
 335 516 396 431 396 375 c 258
 396 139 l 258
 396 86 345 0 232 0 c 258
 122 0 l 257
 122 38 l 257
 234 38 l 258
 294 38 356 76 356 158 c 258
 356 364 l 258
 356 434 300 478 228 478 c 258
 115 478 l 257
EndSplineSet
EndChar

StartChar: three
Encoding: 51 51 275
GlifName: three
Width: 484
VWidth: 0
GlyphClass: 2
Flags: W
LayerCount: 2
Back
Fore
SplineSet
250 -4 m 257
 250 34 l 257
 343.031 34 407.267 86.9336 407.267 187.687 c 256
 407.267 248.063 384.246 330 245 330 c 257
 245 366 l 257
 384.246 366 407.267 447.936 407.267 508.313 c 256
 407.267 609.067 343.031 662 250 662 c 257
 250 700 l 257
 380.19 699.8 446.515 614.535 446.515 510.524 c 256
 446.515 444.729 429 390 366.722 348 c 257
 429 305 446.515 251.271 446.515 185.476 c 256
 446.515 81.4648 380.19 -3.7998 250 -4 c 257
19 176 m 257
 56 184 l 257
 80 37 195 34 195 34 c 257
 195 -4 l 257
 89 5 28 92 19 176 c 257
18.9443 520 m 257
 27.9443 604 88.9443 691 194.944 700 c 257
 194.944 662 l 257
 194.944 662 79.9443 659 55.9443 512 c 257
 18.9443 520 l 257
EndSplineSet
EndChar

StartChar: threequarters
Encoding: 387 190 276
GlifName: threequarters
Width: 624
VWidth: 0
GlyphClass: 2
Flags: W
LayerCount: 2
Back
Fore
SplineSet
155.364 345 m 257
 155.364 375 l 257
 201.88 375 223.998 403.467 223.998 442.844 c 256
 223.998 452.032 222.487 509 152.864 509 c 257
 142.864 509 l 257
 142.864 536 l 257
 152.864 536 l 257
 222.487 536 223.998 592.968 223.998 602.156 c 256
 223.998 641.533 201.88 670 155.364 670 c 257
 155.364 700 l 257
 220.46 699.9 253.622 655.268 253.622 603.262 c 256
 253.622 570.364 244.864 543 213.726 523 c 257
 244.864 502 253.622 474.636 253.622 441.738 c 256
 253.622 389.732 220.46 345.1 155.364 345 c 257
525.25 -0.25 m 257
 525.25 350.25 l 257
 555.75 350.25 l 257
 555.75 91.25 l 257
 582.75 91.25 l 257
 582.75 61.25 l 257
 555.75 61.25 l 257
 555.75 -0.25 l 257
 525.25 -0.25 l 257
357.25 61.25 m 257
 357.25 91.25 l 257
 502.75 338.25 l 257
 502.75 279.75 l 257
 392.75 91.25 l 257
 502.75 91.25 l 257
 502.75 61.25 l 257
 357.25 61.25 l 257
39.8643 435 m 257
 68.6562 442 l 257
 76.6562 375 127.864 375 127.864 375 c 256
 127.864 345 l 257
 74.8643 349.5 44.3643 393 39.8643 435 c 257
39.8369 610 m 257
 44.3369 652 74.8369 695.5 127.837 700 c 257
 127.837 670 l 256
 127.837 670 76.6289 670 68.6289 603 c 257
 39.8369 610 l 257
126 0 m 257
 558 700 l 257
 594 700 l 257
 162 0 l 257
 126 0 l 257
EndSplineSet
EndChar

StartChar: threesuperior
Encoding: 179 179 277
GlifName: uni00B_3
Width: 225
VWidth: 0
GlyphClass: 2
Flags: W
LayerCount: 2
Back
Fore
SplineSet
117.081 387.32 m 257
 117.081 413.28 l 257
 143.154 413.28 178.133 431.512 178.133 473.829 c 256
 178.133 499.188 158.464 530.601 114.981 530.601 c 257
 114.981 555.72 l 257
 158.464 555.72 178.133 589.133 178.133 614.491 c 256
 178.133 656.809 143.154 674.04 117.081 674.04 c 257
 117.081 700 l 257
 171.761 699.916 204.617 659.104 204.617 615.42 c 256
 204.617 587.786 197.261 560.8 171.104 543.16 c 257
 197.261 525.521 204.617 500.534 204.617 472.9 c 256
 204.617 429.216 171.761 387.404 117.081 387.32 c 257
20.0625 462.92 m 257
 45.0244 468.32 l 257
 53.0244 415.32 93.9814 413.28 93.9814 413.28 c 257
 93.9814 387.32 l 257
 49.4619 391.101 23.8418 427.641 20.0625 462.92 c 257
20.0381 624.4 m 257
 23.8174 659.68 49.4375 696.22 93.957 700 c 257
 93.957 674.04 l 257
 93.957 674.04 53 672 45 619 c 257
 20.0381 624.4 l 257
EndSplineSet
EndChar

StartChar: tilde
Encoding: 388 732 278
GlifName: tilde
Width: 333
VWidth: 0
GlyphClass: 2
Flags: W
LayerCount: 2
Back
Fore
SplineSet
26 136 m 257
 26 175 l 257
 54 191 77 197 96 197 c 256
 147 197 176 156 227 156 c 256
 249 156 274 164 307 184 c 257
 307 146 l 257
 273 125 246 118 223 118 c 256
 170 118 140 158 92 158 c 256
 74 158 52 152 26 136 c 257
EndSplineSet
EndChar

StartChar: trademark
Encoding: 389 8482 279
GlifName: T_radeM_arkS_ign
Width: 463
VWidth: 0
GlyphClass: 2
Flags: W
LayerCount: 2
Back
Fore
SplineSet
25.5898 678.572 m 257
 25.5898 699.2 l 257
 158.088 699.2 l 257
 158.088 678.572 l 257
 102.806 678.572 l 257
 102.806 485 l 257
 80.5664 485 l 257
 80.5664 678.572 l 257
 25.5898 678.572 l 257
180 485 m 257
 180 644 l 257
 185 644 l 257
 202.092 603.905 l 257
 202.144 485 l 257
 180 485 l 257
180.852 692.468 m 257
 180.852 699.2 l 257
 202.174 699.2 l 257
 272.958 527.054 l 257
 335 663 l 257
 342 663 l 257
 342 629 l 257
 278.772 485 l 257
 267.144 485 l 257
 180.852 692.468 l 257
354.772 485 m 257
 354.772 699.2 l 257
 377.013 699.2 l 257
 377.013 485 l 257
 354.772 485 l 257
EndSplineSet
EndChar

StartChar: two
Encoding: 50 50 280
GlifName: two
Width: 485
VWidth: 0
GlyphClass: 2
Flags: W
LayerCount: 2
Back
Fore
SplineSet
29.9443 520 m 257
 38.9443 604 99.9443 691 205.944 700 c 257
 205.944 662 l 256
 205.944 662 90.9443 659 66.9443 512 c 257
 29.9443 520 l 257
48.9443 0 m 257
 48.9443 38 l 257
 452.944 38 l 257
 452.944 0 l 257
 48.9443 0 l 257
48.9443 80 m 257
 48.9443 257 256.944 328 293.944 346 c 256
 349.944 373 418.944 408 418.944 494 c 256
 418.944 579 386.944 662 250.944 662 c 257
 250.944 700 l 257
 408.944 700 460.944 599 458.944 494 c 256
 456.944 410 411.944 364 343.944 329 c 256
 269.944 291 88.9443 231 88.9443 80 c 257
 48.9443 80 l 257
EndSplineSet
EndChar

StartChar: twosuperior
Encoding: 178 178 281
GlifName: uni00B_2
Width: 231
VWidth: 0
GlyphClass: 2
Flags: W
LayerCount: 2
Back
Fore
SplineSet
20.9404 624.365 m 257
 24.7197 659.645 55.3398 696.185 99.8594 699.965 c 257
 99.8594 674.005 l 257
 99.8594 674.005 53.9023 671.965 45.9023 618.965 c 257
 20.9404 624.365 l 257
24.666 387 m 257
 24.666 412.989 l 257
 205.291 412.989 l 257
 205.291 387 l 257
 24.666 387 l 257
24.666 431.768 m 257
 24.666 510.902 117.725 539.532 134.204 548.693 c 256
 163.591 565.03 185.09 582.413 185.09 613.863 c 256
 185.09 634.866 171.783 673.975 119.979 673.975 c 257
 119.979 699.965 l 257
 183.619 699.965 210.889 658.809 210.974 612.863 c 256
 211.06 566.297 177.961 540.741 147.559 525.094 c 256
 114.474 508.104 54.5498 490.278 54.5498 431.768 c 257
 24.666 431.768 l 257
EndSplineSet
EndChar

StartChar: u
Encoding: 117 117 282
GlifName: u
Width: 450
VWidth: 0
GlyphClass: 2
Flags: W
LayerCount: 2
Back
Fore
SplineSet
38 137 m 258
 38 514 l 257
 78 514 l 257
 78 142 l 258
 78 96 134 35 204 35 c 257
 204 -5 l 257
 91 -5 38 86 38 137 c 258
246 -5 m 257
 246 35 l 257
 318 35 372 94 372 142 c 258
 372 514 l 257
 412 514 l 257
 412 137 l 258
 412 89 358 -5 246 -5 c 257
EndSplineSet
EndChar

StartChar: underscore
Encoding: 95 95 289
GlifName: underscore
Width: 510
VWidth: 0
GlyphClass: 2
Flags: W
LayerCount: 2
Back
Fore
SplineSet
30 -167 m 257
 480 -167 l 257
 480 -205 l 257
 30 -205 l 257
 30 -167 l 257
EndSplineSet
EndChar

StartChar: uni00B5
Encoding: 181 181 291
GlifName: mu
Width: 491
VWidth: 0
GlyphClass: 2
Flags: W
LayerCount: 2
Back
Fore
SplineSet
35 0 m 257
 35 698 l 257
 75 698 l 257
 75 316 l 258
 75 285.983 136.528 258 201 258 c 257
 201 220 l 257
 131.446 220 87.0123 250.269 75 257 c 257
 75 0 l 257
 35 0 l 257
243 220 m 257
 243 258 l 257
 305.506 258 369 284.985 369 316 c 258
 369 698 l 257
 369 700 l 257
 409 700 l 257
 409 698 l 257
 409 315 l 258
 409 279.518 413.072 261 451 261 c 257
 451 222 l 257
 407.841 222 392.167 234.367 376 257 c 257
 348.627 235.943 299.572 220 243 220 c 257
EndSplineSet
EndChar

StartChar: uni02C9
Encoding: 408 713 310
GlifName: uni02C_9
Width: 416
VWidth: 0
GlyphClass: 2
Flags: W
LayerCount: 2
Back
Fore
SplineSet
50 540 m 257
 50 570 l 257
 366 570 l 257
 366 540 l 257
 50 540 l 257
EndSplineSet
EndChar

StartChar: uni2113
Encoding: 409 8467 311
GlifName: uni2113
Width: 184
VWidth: 0
GlyphClass: 2
Flags: W
LayerCount: 2
Back
Fore
SplineSet
71 170 m 258
 71 700 l 257
 111 700 l 257
 111 170 l 257
 111 41 184 33 212 33 c 257
 212 -5 l 257
 152 -5 71 26 71 170 c 258
EndSplineSet
EndChar

StartChar: uni2126
Encoding: 410 8486 312
GlifName: uni2126
Width: 420
VWidth: 0
GlyphClass: 2
Flags: W
LayerCount: 2
Back
Fore
SplineSet
20 -1 m 257
 20 29 l 257
 101 29 l 257
 56 61 35 110 35 141 c 258
 35 376 l 258
 35 425 89 516 199 516 c 257
 199 478 l 257
 119 478 75 410 75 363 c 258
 75 154 l 258
 75 111 126 37 199 37 c 257
 199 -1 l 257
 20 -1 l 257
240 -1 m 257
 240 37 l 257
 315 37 359 108 359 152 c 258
 359 363 l 258
 359 408 315 478 240 478 c 257
 240 516 l 257
 348 516 399 425 399 376 c 258
 399 141 l 258
 399 110 378 61 335 29 c 257
 414 29 l 257
 414 -1 l 257
 240 -1 l 257
EndSplineSet
EndChar

StartChar: uni2206
Encoding: 411 8710 313
GlifName: uni2206
Width: 476
VWidth: 0
GlyphClass: 2
Flags: W
LayerCount: 2
Back
Fore
SplineSet
30 0 m 257
 196 615 l 257
 204.218 615 l 257
 217.142 553.815 l 257
 79 40 l 257
 391 40 l 257
 214 706 l 257
 252 706 l 257
 446 0 l 257
 30 0 l 257
EndSplineSet
EndChar

StartChar: uni5713
Encoding: 414 22291 316
GlifName: H_K_D_
Width: 843
VWidth: 0
GlyphClass: 2
Flags: W
LayerCount: 2
Back
Fore
SplineSet
50 488 m 257
 50 698 l 257
 80 698 l 257
 80 608 l 257
 101 608 l 257
 101 578 l 257
 80 578 l 257
 80 488 l 257
 50 488 l 257
117 578 m 257
 117 608 l 257
 139 608 l 257
 139 698 l 257
 169 698 l 257
 169 488 l 257
 139 488 l 257
 139 578 l 257
 117 578 l 257
198 488 m 257
 198 698 l 257
 228 698 l 257
 228 488 l 257
 198 488 l 257
240 601 m 257
 293 698 l 257
 324 698 l 257
 271 601 l 257
 325 488 l 257
 294 488 l 257
 240 601 l 257
EndSplineSet
Refer: 141 36 N 1 0 0 1 322 0 2
EndChar

StartChar: v
Encoding: 118 118 319
GlifName: v
Width: 400
VWidth: 0
GlyphClass: 2
Flags: W
LayerCount: 2
Back
Fore
SplineSet
8 515 m 257
 53 515 l 257
 219 31 l 257
 208 0 l 257
 188 0 l 257
 8 515 l 257
213 140 m 257
 347 515 l 257
 392 515 l 257
 241 92 l 257
 229 92 l 257
 213 140 l 257
EndSplineSet
EndChar

StartChar: w
Encoding: 119 119 320
GlifName: w
Width: 723
VWidth: 0
GlyphClass: 2
Flags: W
LayerCount: 2
Back
Fore
SplineSet
10 516 m 257
 55 516 l 257
 221 32 l 257
 210 1 l 257
 190 1 l 257
 10 516 l 257
215 141 m 257
 339 516 l 257
 384 516 l 257
 243 93 l 257
 231 93 l 257
 215 141 l 257
339 516 m 257
 384 516 l 257
 550 32 l 257
 539 1 l 257
 519 1 l 257
 339 516 l 257
544 141 m 257
 668 516 l 257
 713 516 l 257
 572 93 l 257
 560 93 l 257
 544 141 l 257
EndSplineSet
EndChar

StartChar: x
Encoding: 120 120 321
GlifName: x
Width: 379
VWidth: 0
GlyphClass: 2
Flags: W
LayerCount: 2
Back
Fore
SplineSet
8 0 m 257
 166 262 l 257
 13 516 l 257
 52 516 l 257
 190 293 l 257
 327 515 l 257
 367 515 l 257
 215 262 l 257
 371 0 l 257
 332 0 l 257
 190 232 l 257
 47 0 l 257
 8 0 l 257
EndSplineSet
EndChar

StartChar: y
Encoding: 121 121 322
GlifName: y
Width: 390
VWidth: 0
GlyphClass: 2
Flags: W
LayerCount: 2
Back
Fore
SplineSet
4 515 m 257
 43 515 l 257
 212 111 l 257
 115 -182 l 257
 76 -182 l 257
 173 111 l 257
 4 515 l 257
213 197 m 257
 347 515 l 257
 386 515 l 257
 235 156 l 257
 230 156 l 257
 213 197 l 257
EndSplineSet
EndChar

StartChar: yen
Encoding: 419 165 325
GlifName: yen
Width: 452
VWidth: 0
GlyphClass: 2
Flags: W
LayerCount: 2
Back
Fore
SplineSet
21 186 m 257
 436 186 l 257
 436 153 l 257
 21 153 l 257
 21 186 l 257
21 276 m 257
 436 276 l 257
 436 243 l 257
 21 243 l 257
 21 276 l 257
207 0 m 257
 207 288 l 257
 57 698 l 257
 98 698 l 257
 227 343 l 257
 355 698 l 257
 396 698 l 257
 247 288 l 257
 247 0 l 257
 207 0 l 257
EndSplineSet
EndChar

StartChar: z
Encoding: 122 122 326
GlifName: z
Width: 356
VWidth: 0
GlyphClass: 2
Flags: W
LayerCount: 2
Back
Fore
SplineSet
30 0 m 257
 31 37 l 257
 284 476 l 257
 30 476 l 257
 30 514 l 257
 326 514 l 257
 326 482 l 257
 72 38 l 257
 326 38 l 257
 326 0 l 257
 30 0 l 257
EndSplineSet
EndChar

StartChar: zero
Encoding: 48 48 330
GlifName: zero
Width: 506
VWidth: 0
GlyphClass: 2
Flags: W
LayerCount: 2
Back
Fore
SplineSet
222 0 m 257
 156 3 40 60 40 353 c 256
 40 602 134 693 223 698 c 257
 223 660 l 257
 172 660 85 583 81 398 c 256
 80 371 81 360 81 339 c 256
 81 93 181 39 222 38 c 257
 222 0 l 257
284 0 m 257
 284 38 l 257
 339 46 426 90 426 339 c 256
 426 360 426 371 426 398 c 256
 426 577 335 659 283 660 c 257
 283 698 l 257
 372 693 466 602 466 353 c 256
 466 60 350 3 284 0 c 257
EndSplineSet
EndChar
